<svg width="1573" height="541" viewBox="0 0 1573 541" fill="none" xmlns="http://www.w3.org/2000/svg">
<g filter="url(#filter0_d_1201_1271)">
<path d="M273.29 3.93994H1305.48C1449.61 3.93994 1566.45 120.78 1566.45 264.91C1566.45 409.04 1449.61 525.88 1305.48 525.88H273.29C129.16 525.88 12.3203 409.04 12.3203 264.91C12.3203 120.78 129.16 3.93994 273.29 3.93994Z" fill="#F7F7F7"/>
<path d="M298.571 465.5C409.341 465.5 499.131 375.7 499.131 264.91C499.131 154.12 409.341 64.3198 298.571 64.3198C187.801 64.3198 98.0107 154.11 98.0107 264.9C98.0107 375.69 187.801 465.49 298.571 465.49V465.5Z" fill="#076CE3"/>
<path d="M311.471 387.07C378.391 385.61 430.631 333.16 432.181 273.92C433.461 224.96 399.931 178.12 348.981 160.73" stroke="white" stroke-width="13.63" stroke-miterlimit="10" stroke-linecap="round"/>
<path d="M311.26 282.43C316.1 282.43 320.02 278.52 320.02 273.67C320.02 268.82 316.1 264.91 311.26 264.91C306.42 264.91 302.5 268.82 302.5 273.67C302.5 278.52 306.42 282.43 311.26 282.43Z" fill="white" stroke="white" stroke-width="1.95" stroke-miterlimit="10" stroke-linecap="round"/>
<path d="M202.23 160.79C212.48 176.47 255.42 230.63 255.42 230.63C255.42 230.63 303.7 171.56 309.56 160.79" stroke="white" stroke-width="13.63" stroke-miterlimit="10" stroke-linecap="round"/>
<path d="M202.23 339.28V160.79" stroke="white" stroke-width="13.63" stroke-linecap="round" stroke-linejoin="round"/>
<path d="M310.86 244.86V160.79" stroke="white" stroke-width="13.63" stroke-linecap="round" stroke-linejoin="round"/>
<path d="M309.561 387.13V303.06" stroke="white" stroke-width="13.63" stroke-linecap="round" stroke-linejoin="round"/>
<path d="M683.111 304.3L650.031 261.79V346.22H623.851V207.88H640.491L687.171 271.76L729.591 207.88H745.631V346.21H719.041V266.46L693.261 302.88L683.111 304.3V304.3ZM820.441 348.65C804.881 348.65 792.701 343.98 783.911 334.61C775.251 325.13 770.921 312.45 770.921 296.57C770.921 280.69 775.451 268.29 784.521 258.92C793.721 249.57 806.241 244.9 822.071 244.9C837.901 244.9 851.101 249.77 860.031 259.55C869.101 269.17 873.631 281.85 873.631 297.59C873.631 313.33 868.761 325.81 859.021 335.02C849.281 344.12 836.421 348.65 820.461 348.65H820.441ZM846.421 297.59C846.421 288.24 844.321 280.92 840.131 275.62C836.071 270.19 830.251 267.48 822.671 267.48C815.091 267.48 808.941 269.86 804.601 274.61C800.271 279.36 798.101 286.61 798.101 296.36C798.101 306.11 799.931 313.52 803.581 318.54C807.371 323.56 813.121 326.08 820.831 326.08C828.541 326.08 834.561 323.84 839.301 319.36C844.041 314.74 846.401 307.48 846.401 297.59H846.421ZM922.301 202.59V250.6C926.221 248.44 930.351 246.74 934.681 245.52C939.151 244.29 943.141 243.69 946.661 243.69C961.141 243.69 972.231 248.71 979.951 258.74C987.661 268.77 991.521 281.25 991.521 296.17C991.521 311.09 987.531 323.57 979.541 333.6C971.691 343.63 960.731 348.65 946.661 348.65C942.061 348.65 936.921 347.7 931.231 345.81C925.551 343.9 920.471 341.25 916.011 337.86L909.511 346.21H896.111V204.82L922.291 202.58L922.301 202.59ZM939.761 326.08C948.831 326.08 955.181 322.81 958.841 316.3C962.491 309.66 964.321 302.94 964.321 296.16C964.321 288.43 962.701 281.51 959.451 275.42C956.201 269.3 949.641 266.25 939.761 266.25C936.921 266.25 933.941 266.8 930.831 267.89C927.851 268.84 925.011 270.19 922.311 271.96V320.38C925.021 322.02 927.861 323.36 930.831 324.45C933.941 325.54 936.921 326.09 939.761 326.09V326.08ZM1025.83 203.81C1030.02 203.81 1033.54 205.23 1036.39 208.07C1039.37 210.91 1040.86 214.44 1040.86 218.65C1040.86 222.86 1039.37 226.38 1036.39 229.23C1033.55 232.09 1030.03 233.51 1025.83 233.51C1021.63 233.51 1018.32 232.09 1015.48 229.23C1012.64 226.39 1011.22 222.86 1011.22 218.65C1011.22 214.44 1012.64 210.92 1015.48 208.07C1018.32 205.23 1021.77 203.81 1025.83 203.81ZM1039.02 247.53V346.21H1012.63V247.53H1039.02V247.53ZM1077.76 203.81C1081.95 203.81 1085.47 205.23 1088.32 208.07C1091.3 210.91 1092.79 214.44 1092.79 218.65C1092.79 222.86 1091.3 226.38 1088.32 229.23C1085.48 232.09 1081.96 233.51 1077.76 233.51C1073.56 233.51 1070.25 232.09 1067.41 229.23C1064.57 226.39 1063.15 222.86 1063.15 218.65C1063.15 214.44 1064.57 210.92 1067.41 208.07C1070.25 205.23 1073.7 203.81 1077.76 203.81ZM1090.95 247.53V346.21H1064.56V247.53H1090.95V247.53ZM1144.1 202.58V346.21H1117.92V204.82L1144.1 202.58V202.58ZM1216.28 300.83H1163.31L1161.08 280.09H1214.26L1216.29 300.83H1216.28ZM1262.7 207.87V346.2H1236.52V207.88H1262.7V207.87ZM1347.11 346.2H1296.77V207.88H1347.92C1369.17 207.88 1384.93 214.31 1395.21 227.2C1405.49 240.07 1410.64 256.43 1410.64 276.22C1410.64 297.66 1405.09 314.68 1394 327.28C1382.91 339.9 1367.28 346.21 1347.11 346.21V346.2ZM1348.12 230.24H1322.95V324.01H1346.7C1357.79 324.01 1366.66 320.35 1373.29 313.03C1380.06 305.71 1383.44 293.44 1383.44 276.2C1383.44 261.83 1380.6 250.57 1374.91 242.43C1369.23 234.31 1360.3 230.24 1348.12 230.24V230.24Z" fill="#076CE3"/>
<path d="M1116.66 374.92C1094.55 374.92 1076.62 392.86 1076.62 414.96C1076.62 437.06 1094.54 455 1116.66 455C1138.78 455 1156.69 437.08 1156.69 414.96C1156.69 392.84 1138.77 374.92 1116.66 374.92ZM1116.66 450.43C1097.08 450.43 1081.2 434.56 1081.2 414.97C1081.2 395.38 1097.08 379.51 1116.66 379.51C1136.24 379.51 1152.12 395.38 1152.12 414.97C1152.12 434.56 1136.24 450.43 1116.66 450.43Z" fill="#40403F"/>
<path d="M1108.8 411.69L1107.71 411.4L1107.05 411.3L1105.49 410.89L1104.37 410.64L1103.87 410.5L1103.14 410.29C1100.79 409.57 1100.4 408.67 1100.4 408.05C1100.4 407.86 1100.44 407.6 1100.53 407.29C1101 405.75 1102.89 405.34 1104.2 405.34C1105.9 405.34 1106.8 405.61 1108.24 406.64L1108.8 407.07L1109.77 407.87C1110.38 408.28 1111.12 408.43 1111.79 408.3C1112.59 408.14 1113.21 407.68 1113.62 406.96C1114.89 404.78 1113.28 403.14 1111.76 401.94C1111.02 401.39 1110.23 400.95 1109.38 400.62C1108.43 400.19 1107.45 399.92 1106.43 399.8C1105.8 399.7 1105.37 399.64 1105.14 399.64H1104.4C1102.15 399.64 1100.13 400.17 1098.42 401.32C1096.8 402.39 1095.67 403.87 1095.11 405.74C1094.85 406.6 1094.71 407.45 1094.71 408.37C1094.71 412.32 1097.37 414.78 1101.5 415.97L1102.51 416.24C1103.71 416.51 1104.9 416.8 1106.11 417.1L1107.17 417.39C1107.72 417.51 1108.15 417.72 1108.39 417.9C1109 418.29 1109.36 418.87 1109.36 419.85C1109.36 422.21 1107.05 423.16 1105.17 423.18H1104.7L1103.96 423.1C1103.09 423.02 1102.18 422.71 1101.3 422.17C1100.91 421.98 1100.27 421.51 1100.01 421.14C1099.13 419.93 1098.16 418.43 1096.55 418.43C1095.54 418.43 1094.72 418.98 1094.27 419.91C1094.04 420.4 1093.91 420.92 1093.91 421.47C1093.91 425.46 1099.83 428.38 1102.93 428.79C1103.63 428.87 1104.31 428.91 1104.93 428.91C1109.38 428.91 1113.73 426.71 1114.84 421.8C1114.99 421.04 1115.08 420.32 1115.08 419.62C1115.08 415.51 1112.52 412.63 1108.83 411.71" fill="#40403F"/>
<path d="M1138.29 423.55L1128.98 413.91L1137.47 405.24C1138.27 404.44 1138.93 403.31 1138.59 401.97C1138.24 400.47 1136.92 399.59 1135.5 399.79C1134.76 399.95 1134.09 400.47 1133.6 401L1125.42 409.63V402.11C1125.2 400.47 1124.11 399.68 1122.63 399.68C1120.48 399.68 1119.84 401.63 1119.84 403.32V425.97C1119.84 427.72 1120.97 429.11 1122.68 429.11C1124.81 429.11 1125.42 427.14 1125.42 425.53V418.42L1134.37 427.98C1134.98 428.6 1135.76 429.03 1136.67 429.03C1136.97 429.03 1137.26 428.97 1137.53 428.91C1138.71 428.42 1139.47 427.51 1139.47 426.11C1139.47 425.53 1139.28 424.9 1138.95 424.4L1138.29 423.58V423.56V423.55Z" fill="#40403F"/>
<path d="M1172.97 427.99C1172.97 428.57 1172.8 428.85 1172.2 428.85H1169.6C1169.04 428.85 1168.83 428.58 1168.83 427.99V400.74C1168.83 400.14 1169.05 399.88 1169.6 399.88H1172.2C1172.8 399.88 1172.97 400.13 1172.97 400.74V427.99Z" fill="#40403F"/>
<path d="M1180.63 428.85C1180.12 428.85 1179.95 428.54 1179.95 427.99V400.74C1179.95 400.14 1180.17 399.88 1180.72 399.88H1189.62C1196.89 399.88 1199.33 402.94 1199.33 406.44V422.27C1199.33 425.76 1196.9 428.83 1189.62 428.83H1180.63V428.85ZM1184.08 403.43V425.3H1189.62C1193.45 425.3 1195.16 423.9 1195.16 421.6V407.13C1195.16 404.83 1193.46 403.43 1189.62 403.43H1184.08Z" fill="#40403F"/>
<path d="M1230.68 405.81C1230.68 403.26 1229.27 401.47 1224.34 401.47C1219.41 401.47 1218 403.26 1218 405.81V407.39C1218 409.55 1219.53 410.58 1220.68 410.99L1228.85 414.11C1230.98 414.91 1233.1 416.52 1233.1 419.43V423.17C1233.1 426.5 1231.06 429.17 1224.29 429.17C1217.52 429.17 1215.43 426.5 1215.43 423.17V420.97C1215.43 420.58 1215.6 420.41 1215.94 420.41H1217.17C1217.51 420.41 1217.68 420.58 1217.68 420.97V422.92C1217.68 425.49 1219.25 427.28 1224.24 427.28C1229.23 427.28 1230.88 425.49 1230.88 422.92V419.9C1230.88 417.6 1229.01 416.59 1227.35 415.95L1219.43 412.89C1217.72 412.25 1215.77 410.55 1215.77 407.87V405.57C1215.77 402.24 1217.64 399.57 1224.33 399.57C1231.02 399.57 1232.89 402.24 1232.89 405.57V407.65C1232.89 407.98 1232.77 408.16 1232.38 408.16H1231.15C1230.81 408.16 1230.68 407.98 1230.68 407.65V405.82V405.81Z" fill="#40403F"/>
<path d="M1239.79 405.55C1239.79 402.22 1241.83 399.55 1248.65 399.55C1255.47 399.55 1257.59 402.22 1257.59 405.55V423.18C1257.59 426.49 1255.5 429.18 1248.65 429.18C1241.8 429.18 1239.79 426.49 1239.79 423.18V405.55ZM1255.29 405.88C1255.29 403.29 1253.62 401.5 1248.65 401.5C1243.68 401.5 1242.05 403.29 1242.05 405.88V422.82C1242.05 425.43 1243.71 427.22 1248.65 427.22C1253.59 427.22 1255.29 425.43 1255.29 422.82V405.88Z" fill="#40403F"/>
<path d="M1267.51 426.88H1280.11C1280.45 426.88 1280.62 427 1280.62 427.39V428.32C1280.62 428.71 1280.45 428.83 1280.11 428.83H1265.68C1265.42 428.83 1265.26 428.66 1265.26 428.32V400.39C1265.26 400.06 1265.43 399.88 1265.77 399.88H1267.05C1267.39 399.88 1267.52 400.05 1267.52 400.39V426.88H1267.51Z" fill="#40403F"/>
<path d="M1288.28 422.83C1288.28 425.44 1289.95 427.23 1294.92 427.23C1299.89 427.23 1301.56 425.44 1301.56 422.83V400.41C1301.56 400.06 1301.74 399.88 1302.07 399.88H1303.34C1303.68 399.88 1303.81 400.05 1303.81 400.41V423.18C1303.81 426.49 1301.77 429.18 1294.91 429.18C1288.05 429.18 1286.01 426.49 1286.01 423.18V400.41C1286.01 400.06 1286.18 399.88 1286.52 399.88H1287.79C1288.13 399.88 1288.26 400.05 1288.26 400.41V422.83H1288.28Z" fill="#40403F"/>
<path d="M1326.73 399.89C1327.07 399.89 1327.24 400.03 1327.24 400.42V401.35C1327.24 401.72 1327.07 401.86 1326.73 401.86H1318.98V428.35C1318.98 428.68 1318.86 428.86 1318.51 428.86H1317.23C1316.85 428.86 1316.72 428.69 1316.72 428.35V401.86H1309.01C1308.63 401.86 1308.5 401.74 1308.5 401.35V400.42C1308.5 400.03 1308.62 399.89 1309.01 399.89H1326.72H1326.73Z" fill="#40403F"/>
<path d="M1334.43 428.32C1334.43 428.65 1334.31 428.83 1333.96 428.83H1332.69C1332.35 428.83 1332.18 428.66 1332.18 428.32V400.39C1332.18 400.06 1332.36 399.88 1332.69 399.88H1333.96C1334.3 399.88 1334.43 400.05 1334.43 400.39V428.32Z" fill="#40403F"/>
<path d="M1342.14 405.55C1342.14 402.22 1344.18 399.55 1351 399.55C1357.82 399.55 1359.94 402.22 1359.94 405.55V423.18C1359.94 426.49 1357.85 429.18 1351 429.18C1344.15 429.18 1342.14 426.49 1342.14 423.18V405.55ZM1357.64 405.88C1357.64 403.29 1355.97 401.5 1351 401.5C1346.03 401.5 1344.4 403.29 1344.4 405.88V422.82C1344.4 425.43 1346.05 427.22 1351 427.22C1355.95 427.22 1357.64 425.43 1357.64 422.82V405.88Z" fill="#40403F"/>
<path d="M1385.34 428.32C1385.34 428.65 1385.22 428.83 1384.87 428.83H1383.72C1383.46 428.83 1383.34 428.75 1383.25 428.58L1371.07 406.9C1370.43 405.89 1369.74 404.49 1369.7 404.35V428.3C1369.7 428.65 1369.58 428.83 1369.23 428.83H1368.08C1367.74 428.83 1367.57 428.66 1367.57 428.3V400.37C1367.57 400.04 1367.75 399.86 1368.08 399.86H1369.23C1369.44 399.86 1369.57 399.94 1369.65 400.07L1381.95 421.9C1382.33 422.58 1383.18 424.33 1383.18 424.33V400.36C1383.18 400.03 1383.36 399.85 1383.69 399.85H1384.84C1385.18 399.85 1385.31 400.02 1385.31 400.36V428.29L1385.33 428.31L1385.34 428.32Z" fill="#40403F"/>
<path d="M1407.9 405.81C1407.9 403.26 1406.49 401.47 1401.56 401.47C1396.63 401.47 1395.22 403.26 1395.22 405.81V407.39C1395.22 409.55 1396.75 410.58 1397.9 410.99L1406.07 414.11C1408.2 414.91 1410.33 416.52 1410.33 419.43V423.17C1410.33 426.5 1408.29 429.17 1401.51 429.17C1394.73 429.17 1392.65 426.5 1392.65 423.17V420.97C1392.65 420.58 1392.82 420.41 1393.16 420.41H1394.39C1394.73 420.41 1394.9 420.58 1394.9 420.97V422.92C1394.9 425.49 1396.47 427.28 1401.46 427.28C1406.45 427.28 1408.1 425.49 1408.1 422.92V419.9C1408.1 417.6 1406.23 416.59 1404.57 415.95L1396.65 412.89C1394.94 412.25 1392.99 410.55 1392.99 407.87V405.57C1392.99 402.24 1394.86 399.57 1401.55 399.57C1408.24 399.57 1410.11 402.24 1410.11 405.57V407.65C1410.11 407.98 1409.99 408.16 1409.6 408.16H1408.37C1408.03 408.16 1407.9 407.98 1407.9 407.65V405.82V405.81Z" fill="#40403F"/>
</g>
<defs>
<filter id="filter0_d_1201_1271" x="3.32031" y="3.93994" width="1566.13" height="533.94" filterUnits="userSpaceOnUse" color-interpolation-filters="sRGB">
<feFlood flood-opacity="0" result="BackgroundImageFix"/>
<feColorMatrix in="SourceAlpha" type="matrix" values="0 0 0 0 0 0 0 0 0 0 0 0 0 0 0 0 0 0 127 0" result="hardAlpha"/>
<feOffset dx="-3" dy="6"/>
<feGaussianBlur stdDeviation="3"/>
<feColorMatrix type="matrix" values="0 0 0 0 0 0 0 0 0 0 0 0 0 0 0 0 0 0 0.1 0"/>
<feBlend mode="normal" in2="BackgroundImageFix" result="effect1_dropShadow_1201_1271"/>
<feBlend mode="normal" in="SourceGraphic" in2="effect1_dropShadow_1201_1271" result="shape"/>
</filter>
</defs>
</svg>
