<svg width="394" height="394" viewBox="0 0 394 394" fill="none" xmlns="http://www.w3.org/2000/svg">
<g clip-path="url(#clip0_1201_1225)">
<path d="M196.92 393.91C305.68 393.91 393.84 305.73 393.84 196.95C393.84 88.17 305.68 0 196.92 0C88.16 0 0 88.18 0 196.96C0 305.74 88.17 393.92 196.92 393.92V393.91Z" fill="#076CE3"/>
<path d="M209.58 316.9C275.29 315.48 326.58 263.97 328.1 205.81C329.36 157.74 296.43 111.74 246.4 94.6699" stroke="white" stroke-width="13.39" stroke-miterlimit="10" stroke-linecap="round"/>
<path d="M208.07 213.53C212.82 213.53 216.67 209.68 216.67 204.93C216.67 200.18 212.82 196.33 208.07 196.33C203.32 196.33 199.47 200.18 199.47 204.93C199.47 209.68 203.32 213.53 208.07 213.53Z" fill="white" stroke="white" stroke-width="1.91" stroke-miterlimit="10" stroke-linecap="round"/>
<path d="M102.33 94.73C112.39 110.12 154.56 163.31 154.56 163.31C154.56 163.31 201.97 105.31 207.72 94.73" stroke="white" stroke-width="13.39" stroke-miterlimit="10" stroke-linecap="round"/>
<path d="M102.33 269.98V94.73" stroke="white" stroke-width="13.39" stroke-linecap="round" stroke-linejoin="round"/>
<path d="M208.99 177.27V94.73" stroke="white" stroke-width="13.39" stroke-linecap="round" stroke-linejoin="round"/>
<path d="M207.72 316.97V234.42" stroke="white" stroke-width="13.39" stroke-linecap="round" stroke-linejoin="round"/>
</g>
<defs>
<clipPath id="clip0_1201_1225">
<rect width="393.85" height="393.91" fill="white"/>
</clipPath>
</defs>
</svg>
