<svg width="1577" height="541" viewBox="0 0 1577 541" fill="none" xmlns="http://www.w3.org/2000/svg">
<g filter="url(#filter0_d_1201_1296)">
<path d="M1490.31 3.4502H91.9896C47.8897 3.4502 12.1396 39.2003 12.1396 83.3002V445.54C12.1396 489.64 47.8897 525.39 91.9896 525.39H1490.31C1534.41 525.39 1570.16 489.64 1570.16 445.54V83.3002C1570.16 39.2003 1534.41 3.4502 1490.31 3.4502Z" fill="#F7F7F7"/>
<path d="M335.39 465.01C446.16 465.01 535.95 375.21 535.95 264.42C535.95 153.63 446.16 63.8203 335.39 63.8203C224.62 63.8203 134.83 153.62 134.83 264.41C134.83 375.2 224.62 465 335.39 465V465.01Z" fill="#076CE3"/>
<path d="M348.279 386.59C415.199 385.13 467.439 332.68 468.989 273.44C470.269 224.48 436.739 177.64 385.789 160.25" stroke="white" stroke-width="13.63" stroke-miterlimit="10" stroke-linecap="round"/>
<path d="M348.079 281.95C352.919 281.95 356.839 278.04 356.839 273.19C356.839 268.34 352.919 264.43 348.079 264.43C343.239 264.43 339.319 268.34 339.319 273.19C339.319 278.04 343.239 281.95 348.079 281.95Z" fill="white" stroke="white" stroke-width="1.95" stroke-miterlimit="10" stroke-linecap="round"/>
<path d="M239.05 160.3C249.3 175.98 292.24 230.14 292.24 230.14C292.24 230.14 340.52 171.07 346.38 160.3" stroke="white" stroke-width="13.63" stroke-miterlimit="10" stroke-linecap="round"/>
<path d="M239.05 338.79V160.3" stroke="white" stroke-width="13.63" stroke-linecap="round" stroke-linejoin="round"/>
<path d="M347.68 244.38V160.31" stroke="white" stroke-width="13.63" stroke-linecap="round" stroke-linejoin="round"/>
<path d="M346.38 386.65V302.58" stroke="white" stroke-width="13.63" stroke-linecap="round" stroke-linejoin="round"/>
<path d="M719.93 303.82L686.85 261.31V345.74H660.67V207.4H677.31L723.99 271.28L766.41 207.4H782.45V345.73H755.86V265.98L730.08 302.4L719.93 303.82V303.82ZM857.26 348.17C841.7 348.17 829.52 343.5 820.73 334.13C812.07 324.65 807.74 311.97 807.74 296.09C807.74 280.21 812.27 267.81 821.34 258.44C830.54 249.09 843.06 244.42 858.89 244.42C874.72 244.42 887.92 249.29 896.85 259.07C905.92 268.69 910.45 281.37 910.45 297.11C910.45 312.85 905.58 325.33 895.84 334.54C886.1 343.63 873.24 348.17 857.28 348.17H857.26ZM883.24 297.11C883.24 287.76 881.14 280.44 876.95 275.14C872.89 269.71 867.07 267 859.49 267C851.91 267 845.76 269.38 841.42 274.13C837.09 278.88 834.92 286.13 834.92 295.88C834.92 305.63 836.75 313.04 840.4 318.06C844.19 323.08 849.94 325.6 857.65 325.6C865.36 325.6 871.38 323.36 876.12 318.88C880.86 314.26 883.22 307 883.22 297.11H883.24ZM959.12 202.11V250.12C963.04 247.96 967.17 246.26 971.5 245.04C975.97 243.81 979.96 243.21 983.48 243.21C997.96 243.21 1009.05 248.23 1016.77 258.26C1024.48 268.29 1028.34 280.77 1028.34 295.69C1028.34 310.61 1024.35 323.09 1016.36 333.12C1008.51 343.15 997.55 348.17 983.48 348.17C978.88 348.17 973.74 347.22 968.05 345.33C962.37 343.42 957.29 340.77 952.83 337.38L946.33 345.73H932.93V204.34L959.11 202.1L959.12 202.11ZM976.58 325.6C985.65 325.6 992 322.33 995.66 315.82C999.31 309.18 1001.14 302.46 1001.14 295.68C1001.14 287.95 999.52 281.03 996.27 274.94C993.02 268.82 986.46 265.77 976.58 265.77C973.74 265.77 970.76 266.32 967.65 267.41C964.67 268.36 961.83 269.71 959.13 271.48V319.9C961.84 321.54 964.68 322.88 967.65 323.97C970.76 325.06 973.74 325.61 976.58 325.61V325.6ZM1062.65 203.33C1066.84 203.33 1070.36 204.75 1073.21 207.6C1076.19 210.44 1077.68 213.97 1077.68 218.17C1077.68 222.37 1076.19 225.9 1073.21 228.74C1070.37 231.6 1066.85 233.02 1062.65 233.02C1058.45 233.02 1055.14 231.6 1052.3 228.74C1049.46 225.9 1048.04 222.37 1048.04 218.17C1048.04 213.97 1049.46 210.44 1052.3 207.6C1055.14 204.76 1058.59 203.33 1062.65 203.33ZM1075.84 247.05V345.73H1049.45V247.05H1075.84V247.05ZM1114.58 203.33C1118.77 203.33 1122.29 204.75 1125.14 207.6C1128.12 210.44 1129.61 213.97 1129.61 218.17C1129.61 222.37 1128.12 225.9 1125.14 228.74C1122.3 231.6 1118.78 233.02 1114.58 233.02C1110.38 233.02 1107.07 231.6 1104.23 228.74C1101.39 225.9 1099.97 222.37 1099.97 218.17C1099.97 213.97 1101.39 210.44 1104.23 207.6C1107.07 204.76 1110.52 203.33 1114.58 203.33ZM1127.77 247.05V345.73H1101.38V247.05H1127.77V247.05ZM1180.92 202.1V345.73H1154.74V204.34L1180.92 202.1V202.1ZM1253.1 300.35H1200.13L1197.9 279.61H1251.08L1253.11 300.35H1253.1ZM1299.52 207.39V345.72H1273.34V207.4H1299.52V207.39ZM1383.93 345.72H1333.59V207.4H1384.74C1405.99 207.4 1421.75 213.83 1432.03 226.72C1442.31 239.59 1447.46 255.95 1447.46 275.74C1447.46 297.18 1441.91 314.2 1430.82 326.8C1419.73 339.42 1404.1 345.73 1383.93 345.73V345.72ZM1384.94 229.76H1359.77V323.53H1383.52C1394.61 323.53 1403.48 319.87 1410.11 312.55C1416.88 305.23 1420.26 292.96 1420.26 275.72C1420.26 261.35 1417.42 250.09 1411.73 241.95C1406.05 233.83 1397.12 229.76 1384.94 229.76V229.76Z" fill="#076CE3"/>
<path d="M1153.47 374.43C1131.36 374.43 1113.43 392.37 1113.43 414.47C1113.43 436.57 1131.35 454.51 1153.47 454.51C1175.59 454.51 1193.5 436.59 1193.5 414.47C1193.5 392.35 1175.58 374.43 1153.47 374.43ZM1153.47 449.94C1133.89 449.94 1118.01 434.07 1118.01 414.48C1118.01 394.89 1133.89 379.02 1153.47 379.02C1173.05 379.02 1188.93 394.89 1188.93 414.48C1188.93 434.07 1173.05 449.94 1153.47 449.94Z" fill="#40403F"/>
<path d="M1145.61 411.2L1144.52 410.91L1143.86 410.81L1142.3 410.4L1141.18 410.15L1140.68 410.01L1139.95 409.8C1137.6 409.08 1137.21 408.18 1137.21 407.56C1137.21 407.37 1137.25 407.11 1137.34 406.8C1137.81 405.26 1139.7 404.85 1141.01 404.85C1142.71 404.85 1143.61 405.12 1145.05 406.15L1145.61 406.58L1146.58 407.38C1147.19 407.79 1147.93 407.94 1148.6 407.81C1149.4 407.65 1150.02 407.19 1150.43 406.47C1151.7 404.29 1150.09 402.65 1148.57 401.45C1147.83 400.9 1147.04 400.46 1146.19 400.13C1145.24 399.7 1144.26 399.43 1143.24 399.31C1142.61 399.21 1142.18 399.15 1141.95 399.15H1141.21C1138.96 399.15 1136.94 399.68 1135.23 400.83C1133.61 401.9 1132.48 403.38 1131.92 405.25C1131.66 406.11 1131.52 406.96 1131.52 407.88C1131.52 411.83 1134.18 414.29 1138.31 415.48L1139.32 415.75C1140.52 416.02 1141.71 416.31 1142.92 416.61L1143.98 416.9C1144.53 417.02 1144.96 417.23 1145.2 417.41C1145.81 417.8 1146.17 418.38 1146.17 419.36C1146.17 421.72 1143.86 422.67 1141.98 422.69H1141.51L1140.77 422.61C1139.9 422.53 1138.99 422.22 1138.11 421.68C1137.72 421.49 1137.08 421.02 1136.82 420.65C1135.94 419.44 1134.97 417.94 1133.36 417.94C1132.35 417.94 1131.53 418.49 1131.08 419.42C1130.85 419.91 1130.72 420.43 1130.72 420.98C1130.72 424.97 1136.64 427.89 1139.74 428.3C1140.44 428.38 1141.12 428.42 1141.74 428.42C1146.19 428.42 1150.54 426.22 1151.65 421.31C1151.8 420.55 1151.89 419.83 1151.89 419.13C1151.89 415.02 1149.33 412.14 1145.64 411.22" fill="#40403F"/>
<path d="M1175.1 423.06L1165.79 413.42L1174.28 404.75C1175.08 403.95 1175.74 402.82 1175.4 401.48C1175.05 399.98 1173.73 399.1 1172.31 399.3C1171.57 399.46 1170.9 399.98 1170.41 400.51L1162.23 409.14V401.62C1162.01 399.98 1160.92 399.19 1159.44 399.19C1157.29 399.19 1156.65 401.14 1156.65 402.83V425.48C1156.65 427.23 1157.78 428.62 1159.49 428.62C1161.62 428.62 1162.23 426.65 1162.23 425.04V417.93L1171.18 427.49C1171.79 428.11 1172.57 428.54 1173.48 428.54C1173.78 428.54 1174.07 428.48 1174.34 428.42C1175.52 427.93 1176.28 427.02 1176.28 425.62C1176.28 425.04 1176.09 424.41 1175.76 423.91L1175.1 423.09V423.07V423.06Z" fill="#40403F"/>
<path d="M1209.78 427.5C1209.78 428.08 1209.61 428.36 1209.01 428.36H1206.41C1205.85 428.36 1205.64 428.09 1205.64 427.5V400.25C1205.64 399.65 1205.86 399.39 1206.41 399.39H1209.01C1209.61 399.39 1209.78 399.64 1209.78 400.25V427.5Z" fill="#40403F"/>
<path d="M1217.45 428.36C1216.94 428.36 1216.77 428.05 1216.77 427.5V400.25C1216.77 399.65 1216.99 399.39 1217.54 399.39H1226.44C1233.71 399.39 1236.15 402.45 1236.15 405.95V421.78C1236.15 425.27 1233.72 428.34 1226.44 428.34H1217.45V428.36ZM1220.9 402.94V424.81H1226.44C1230.27 424.81 1231.98 423.41 1231.98 421.11V406.64C1231.98 404.34 1230.28 402.94 1226.44 402.94H1220.9Z" fill="#40403F"/>
<path d="M1267.5 405.32C1267.5 402.77 1266.09 400.98 1261.16 400.98C1256.23 400.98 1254.82 402.77 1254.82 405.32V406.9C1254.82 409.06 1256.35 410.09 1257.5 410.5L1265.67 413.62C1267.8 414.42 1269.92 416.03 1269.92 418.94V422.68C1269.92 426.01 1267.88 428.68 1261.11 428.68C1254.34 428.68 1252.25 426.01 1252.25 422.68V420.48C1252.25 420.09 1252.42 419.92 1252.76 419.92H1253.99C1254.33 419.92 1254.5 420.09 1254.5 420.48V422.43C1254.5 425 1256.07 426.79 1261.06 426.79C1266.05 426.79 1267.7 425 1267.7 422.43V419.41C1267.7 417.11 1265.83 416.1 1264.17 415.46L1256.25 412.4C1254.54 411.76 1252.59 410.06 1252.59 407.38V405.08C1252.59 401.75 1254.46 399.08 1261.15 399.08C1267.84 399.08 1269.71 401.75 1269.71 405.08V407.16C1269.71 407.49 1269.59 407.67 1269.2 407.67H1267.97C1267.63 407.67 1267.5 407.49 1267.5 407.16V405.33V405.32Z" fill="#40403F"/>
<path d="M1276.61 405.07C1276.61 401.74 1278.65 399.07 1285.47 399.07C1292.29 399.07 1294.41 401.74 1294.41 405.07V422.7C1294.41 426.01 1292.32 428.7 1285.47 428.7C1278.62 428.7 1276.61 426.01 1276.61 422.7V405.07ZM1292.11 405.4C1292.11 402.81 1290.44 401.02 1285.47 401.02C1280.5 401.02 1278.87 402.81 1278.87 405.4V422.34C1278.87 424.95 1280.53 426.74 1285.47 426.74C1290.41 426.74 1292.11 424.95 1292.11 422.34V405.4Z" fill="#40403F"/>
<path d="M1304.33 426.39H1316.93C1317.27 426.39 1317.44 426.51 1317.44 426.9V427.83C1317.44 428.22 1317.27 428.34 1316.93 428.34H1302.5C1302.24 428.34 1302.08 428.17 1302.08 427.83V399.9C1302.08 399.57 1302.25 399.39 1302.59 399.39H1303.87C1304.21 399.39 1304.34 399.56 1304.34 399.9V426.39H1304.33Z" fill="#40403F"/>
<path d="M1325.1 422.34C1325.1 424.95 1326.77 426.74 1331.74 426.74C1336.71 426.74 1338.38 424.95 1338.38 422.34V399.92C1338.38 399.57 1338.56 399.39 1338.89 399.39H1340.16C1340.5 399.39 1340.63 399.56 1340.63 399.92V422.69C1340.63 426 1338.59 428.69 1331.73 428.69C1324.87 428.69 1322.83 426 1322.83 422.69V399.92C1322.83 399.57 1323 399.39 1323.34 399.39H1324.61C1324.95 399.39 1325.08 399.56 1325.08 399.92V422.34H1325.1Z" fill="#40403F"/>
<path d="M1363.54 399.4C1363.88 399.4 1364.05 399.54 1364.05 399.93V400.86C1364.05 401.23 1363.88 401.37 1363.54 401.37H1355.79V427.86C1355.79 428.19 1355.67 428.37 1355.32 428.37H1354.04C1353.66 428.37 1353.53 428.2 1353.53 427.86V401.37H1345.82C1345.44 401.37 1345.31 401.25 1345.31 400.86V399.93C1345.31 399.54 1345.43 399.4 1345.82 399.4H1363.53H1363.54Z" fill="#40403F"/>
<path d="M1371.25 427.84C1371.25 428.17 1371.13 428.35 1370.78 428.35H1369.51C1369.17 428.35 1369 428.18 1369 427.84V399.91C1369 399.58 1369.18 399.4 1369.51 399.4H1370.78C1371.12 399.4 1371.25 399.57 1371.25 399.91V427.84Z" fill="#40403F"/>
<path d="M1378.95 405.07C1378.95 401.74 1380.99 399.07 1387.81 399.07C1394.63 399.07 1396.75 401.74 1396.75 405.07V422.7C1396.75 426.01 1394.66 428.7 1387.81 428.7C1380.96 428.7 1378.95 426.01 1378.95 422.7V405.07ZM1394.45 405.4C1394.45 402.81 1392.78 401.02 1387.81 401.02C1382.84 401.02 1381.21 402.81 1381.21 405.4V422.34C1381.21 424.95 1382.86 426.74 1387.81 426.74C1392.76 426.74 1394.45 424.95 1394.45 422.34V405.4Z" fill="#40403F"/>
<path d="M1422.16 427.84C1422.16 428.17 1422.04 428.35 1421.69 428.35H1420.54C1420.28 428.35 1420.16 428.27 1420.07 428.1L1407.89 406.42C1407.25 405.41 1406.56 404.01 1406.52 403.87V427.82C1406.52 428.17 1406.4 428.35 1406.05 428.35H1404.9C1404.56 428.35 1404.39 428.18 1404.39 427.82V399.89C1404.39 399.56 1404.57 399.38 1404.9 399.38H1406.05C1406.26 399.38 1406.39 399.46 1406.47 399.59L1418.77 421.42C1419.15 422.1 1420 423.85 1420 423.85V399.88C1420 399.55 1420.18 399.37 1420.51 399.37H1421.66C1422 399.37 1422.13 399.54 1422.13 399.88V427.81L1422.15 427.83L1422.16 427.84Z" fill="#40403F"/>
<path d="M1444.72 405.32C1444.72 402.77 1443.31 400.98 1438.38 400.98C1433.45 400.98 1432.04 402.77 1432.04 405.32V406.9C1432.04 409.06 1433.57 410.09 1434.72 410.5L1442.89 413.62C1445.02 414.42 1447.15 416.03 1447.15 418.94V422.68C1447.15 426.01 1445.11 428.68 1438.33 428.68C1431.55 428.68 1429.47 426.01 1429.47 422.68V420.48C1429.47 420.09 1429.64 419.92 1429.98 419.92H1431.21C1431.55 419.92 1431.72 420.09 1431.72 420.48V422.43C1431.72 425 1433.29 426.79 1438.28 426.79C1443.27 426.79 1444.92 425 1444.92 422.43V419.41C1444.92 417.11 1443.05 416.1 1441.39 415.46L1433.47 412.4C1431.76 411.76 1429.81 410.06 1429.81 407.38V405.08C1429.81 401.75 1431.68 399.08 1438.37 399.08C1445.06 399.08 1446.93 401.75 1446.93 405.08V407.16C1446.93 407.49 1446.81 407.67 1446.42 407.67H1445.19C1444.85 407.67 1444.72 407.49 1444.72 407.16V405.33V405.32Z" fill="#40403F"/>
</g>
<defs>
<filter id="filter0_d_1201_1296" x="3.13965" y="3.4502" width="1570.02" height="533.94" filterUnits="userSpaceOnUse" color-interpolation-filters="sRGB">
<feFlood flood-opacity="0" result="BackgroundImageFix"/>
<feColorMatrix in="SourceAlpha" type="matrix" values="0 0 0 0 0 0 0 0 0 0 0 0 0 0 0 0 0 0 127 0" result="hardAlpha"/>
<feOffset dx="-3" dy="6"/>
<feGaussianBlur stdDeviation="3"/>
<feColorMatrix type="matrix" values="0 0 0 0 0 0 0 0 0 0 0 0 0 0 0 0 0 0 0.1 0"/>
<feBlend mode="normal" in2="BackgroundImageFix" result="effect1_dropShadow_1201_1296"/>
<feBlend mode="normal" in="SourceGraphic" in2="effect1_dropShadow_1201_1296" result="shape"/>
</filter>
</defs>
</svg>
