<svg width="1634" height="541" viewBox="0 0 1634 541" fill="none" xmlns="http://www.w3.org/2000/svg">
<g filter="url(#filter0_d_1201_1356)">
<path d="M1548.01 3.29004H92.8002C48.7003 3.29004 12.9502 39.0401 12.9502 83.14V445.38C12.9502 489.48 48.7003 525.23 92.8002 525.23H1548.01C1592.11 525.23 1627.86 489.48 1627.86 445.38V83.14C1627.86 39.0401 1592.11 3.29004 1548.01 3.29004Z" fill="#F7F7F7"/>
<path d="M336.21 464.85C446.98 464.85 536.77 375.05 536.77 264.26C536.77 153.47 446.98 63.6602 336.21 63.6602C225.44 63.6602 135.65 153.46 135.65 264.25C135.65 375.04 225.44 464.84 336.21 464.84V464.85Z" fill="#076CE3"/>
<path d="M349.101 386.42C416.021 384.96 468.261 332.51 469.811 273.27C471.091 224.31 437.561 177.47 386.611 160.08" stroke="white" stroke-width="13.63" stroke-miterlimit="10" stroke-linecap="round"/>
<path d="M345.62 281.14C350.46 281.14 354.38 277.21 354.38 272.38C354.38 267.55 350.46 263.62 345.62 263.62C340.78 263.62 336.86 267.54 336.86 272.38C336.86 277.22 340.78 281.14 345.62 281.14Z" fill="white" stroke="white" stroke-width="1.95" stroke-miterlimit="10" stroke-linecap="round"/>
<path d="M239.87 160.14C250.12 175.82 293.06 229.98 293.06 229.98C293.06 229.98 341.34 170.91 347.2 160.14" stroke="white" stroke-width="13.63" stroke-miterlimit="10" stroke-linecap="round"/>
<path d="M239.87 338.63V160.14" stroke="white" stroke-width="13.63" stroke-linecap="round" stroke-linejoin="round"/>
<path d="M348.5 244.21V160.14" stroke="white" stroke-width="13.63" stroke-linecap="round" stroke-linejoin="round"/>
<path d="M347.2 386.48V302.41" stroke="white" stroke-width="13.63" stroke-linecap="round" stroke-linejoin="round"/>
<path d="M720.62 303.21L687.61 260.87V344.93H661.48V207.19H678.091L724.67 270.8L767 207.19H783V344.92H756.47V265.54L730.75 301.78L720.62 303.2V303.21ZM857.66 347.36C842.13 347.36 829.981 342.71 821.201 333.4C812.561 323.94 808.24 311.32 808.24 295.52C808.24 279.72 812.76 267.36 821.81 258.05C830.99 248.72 843.481 244.07 859.281 244.07C875.081 244.07 888.24 248.94 897.16 258.66C906.21 268.24 910.73 280.88 910.73 296.54C910.73 312.2 905.871 324.62 896.151 333.8C886.431 342.86 873.6 347.37 857.67 347.37L857.66 347.36ZM883.591 296.53C883.591 287.2 881.5 279.92 877.31 274.66C873.26 269.25 867.451 266.56 859.891 266.56C852.331 266.56 846.18 268.92 841.86 273.65C837.54 278.36 835.38 285.59 835.38 295.31C835.38 305.03 837.2 312.39 840.85 317.39C844.63 322.4 850.37 324.89 858.07 324.89C865.77 324.89 871.77 322.65 876.5 318.21C881.22 313.61 883.591 306.39 883.591 296.53V296.53ZM959.31 201.94V249.73C963.23 247.57 967.35 245.89 971.67 244.67C976.13 243.46 980.11 242.86 983.62 242.86C998.07 242.86 1009.14 247.85 1016.84 257.84C1024.54 267.83 1028.38 280.26 1028.38 295.11C1028.38 309.96 1024.4 322.4 1016.43 332.39C1008.6 342.38 997.66 347.37 983.62 347.37C979.03 347.37 973.9 346.44 968.23 344.55C962.56 342.66 957.5 340.01 953.04 336.64L946.56 344.94H933.19V204.15L959.32 201.93L959.31 201.94ZM976.73 324.89C985.78 324.89 992.121 321.64 995.771 315.17C999.421 308.55 1001.24 301.87 1001.24 295.11C1001.24 287.42 999.62 280.52 996.38 274.45C993.14 268.37 986.59 265.34 976.73 265.34C973.89 265.34 970.92 265.89 967.82 266.96C964.85 267.91 962.01 269.26 959.31 271.01V319.23C962.01 320.85 964.85 322.19 967.82 323.28C970.93 324.35 973.9 324.9 976.73 324.9V324.89ZM1062.62 203.15C1066.81 203.15 1070.32 204.57 1073.15 207.41C1076.12 210.23 1077.61 213.76 1077.61 217.95C1077.61 222.14 1076.12 225.64 1073.15 228.47C1070.31 231.31 1066.8 232.73 1062.62 232.73C1058.44 232.73 1055.13 231.31 1052.29 228.47C1049.45 225.65 1048.04 222.14 1048.04 217.95C1048.04 213.76 1049.46 210.24 1052.29 207.41C1055.13 204.57 1058.57 203.15 1062.62 203.15ZM1075.79 246.7V344.93H1049.46V246.7H1075.79ZM1128.83 201.95V344.94H1102.7V204.15L1128.83 201.93V201.95ZM1205.92 347.37C1188.91 347.37 1175.47 342.72 1165.61 333.41C1155.89 324.08 1151.03 311.6 1151.03 295.94C1151.03 280.28 1155.42 267.72 1164.2 258.26C1173.11 248.81 1185.2 244.08 1200.46 244.08C1215.72 244.08 1227.13 249.22 1234.28 259.49C1241.57 269.62 1245.22 281.63 1245.22 295.54V303.64H1178.99C1180.21 310.13 1183.18 315.33 1187.9 319.24C1192.63 323.02 1198.84 324.91 1206.53 324.91C1210.99 324.91 1214.97 324.37 1218.48 323.29C1222.13 322.06 1226.31 320.39 1231.04 318.23L1238.74 337.26C1234.15 340.77 1228.55 343.34 1221.93 344.95C1215.45 346.59 1210.12 347.38 1205.93 347.38L1205.92 347.37ZM1220.3 286C1218.95 279.38 1216.52 274.53 1213.01 271.41C1209.5 268.18 1205.11 266.56 1199.84 266.56C1194.57 266.56 1189.92 268.23 1186.27 271.62C1182.62 274.85 1180.26 279.64 1179.18 285.99H1220.3V286ZM1311.23 299.77H1258.37L1256.14 279.11H1309.21L1311.24 299.77H1311.23ZM1357.55 207.2V344.93H1331.42V207.19H1357.55V207.2ZM1441.78 344.93H1391.55V207.19H1442.59C1463.79 207.19 1479.52 213.62 1489.78 226.43C1500.04 239.26 1505.17 255.54 1505.17 275.25C1505.17 296.58 1499.64 313.52 1488.56 326.08C1477.49 338.64 1461.89 344.91 1441.77 344.91L1441.78 344.93ZM1442.79 229.48H1417.67V322.86H1441.37C1452.44 322.86 1461.29 319.22 1467.9 311.92C1474.65 304.64 1478.03 292.41 1478.03 275.27C1478.03 260.96 1475.19 249.74 1469.52 241.64C1463.85 233.54 1454.94 229.49 1442.78 229.49L1442.79 229.48Z" fill="#076CE3"/>
<path d="M1154.29 374.27C1132.18 374.27 1114.25 392.21 1114.25 414.31C1114.25 436.41 1132.17 454.35 1154.29 454.35C1176.41 454.35 1194.32 436.43 1194.32 414.31C1194.32 392.19 1176.4 374.27 1154.29 374.27ZM1154.29 449.77C1134.71 449.77 1118.83 433.9 1118.83 414.31C1118.83 394.72 1134.71 378.85 1154.29 378.85C1173.87 378.85 1189.75 394.72 1189.75 414.31C1189.75 433.9 1173.87 449.77 1154.29 449.77Z" fill="#40403F"/>
<path d="M1146.43 411.04L1145.34 410.75L1144.68 410.65L1143.12 410.24L1142 409.99L1141.5 409.85L1140.77 409.64C1138.42 408.92 1138.03 408.02 1138.03 407.4C1138.03 407.21 1138.07 406.95 1138.16 406.64C1138.63 405.1 1140.52 404.69 1141.83 404.69C1143.53 404.69 1144.43 404.96 1145.87 405.99L1146.43 406.42L1147.4 407.22C1148.01 407.63 1148.75 407.78 1149.42 407.65C1150.22 407.49 1150.84 407.03 1151.25 406.31C1152.52 404.13 1150.91 402.49 1149.39 401.29C1148.65 400.75 1147.86 400.3 1147.01 399.97C1146.06 399.54 1145.08 399.27 1144.06 399.15C1143.43 399.05 1143 398.99 1142.77 398.99H1142.03C1139.78 398.99 1137.76 399.52 1136.05 400.66C1134.43 401.73 1133.3 403.21 1132.74 405.08C1132.48 405.94 1132.34 406.79 1132.34 407.71C1132.34 411.66 1135 414.12 1139.13 415.31L1140.14 415.58C1141.34 415.85 1142.53 416.14 1143.74 416.44L1144.8 416.73C1145.35 416.85 1145.78 417.06 1146.02 417.24C1146.63 417.63 1146.99 418.21 1146.99 419.19C1146.99 421.55 1144.68 422.5 1142.8 422.52H1142.33L1141.59 422.44C1140.72 422.36 1139.81 422.05 1138.93 421.51C1138.54 421.32 1137.9 420.85 1137.64 420.48C1136.76 419.27 1135.79 417.77 1134.18 417.77C1133.17 417.77 1132.35 418.32 1131.9 419.25C1131.67 419.74 1131.54 420.26 1131.54 420.81C1131.54 424.8 1137.46 427.72 1140.56 428.13C1141.26 428.21 1141.94 428.25 1142.56 428.25C1147.01 428.25 1151.36 426.05 1152.47 421.14C1152.62 420.38 1152.71 419.66 1152.71 418.96C1152.71 414.85 1150.15 411.97 1146.46 411.05" fill="#40403F"/>
<path d="M1175.92 422.9L1166.61 413.26L1175.1 404.59C1175.9 403.79 1176.56 402.66 1176.22 401.32C1175.87 399.82 1174.55 398.94 1173.13 399.14C1172.39 399.3 1171.72 399.82 1171.23 400.35L1163.05 408.98V401.46C1162.83 399.82 1161.74 399.03 1160.26 399.03C1158.11 399.03 1157.47 400.98 1157.47 402.67V425.32C1157.47 427.07 1158.6 428.46 1160.31 428.46C1162.44 428.46 1163.05 426.49 1163.05 424.88V417.77L1172 427.33C1172.61 427.95 1173.39 428.38 1174.3 428.38C1174.6 428.38 1174.89 428.32 1175.16 428.26C1176.34 427.77 1177.1 426.86 1177.1 425.46C1177.1 424.88 1176.91 424.25 1176.58 423.75L1175.92 422.93V422.91V422.9Z" fill="#40403F"/>
<path d="M1210.6 427.34C1210.6 427.92 1210.43 428.2 1209.83 428.2H1207.23C1206.67 428.2 1206.46 427.93 1206.46 427.34V400.09C1206.46 399.49 1206.68 399.23 1207.23 399.23H1209.83C1210.43 399.23 1210.6 399.48 1210.6 400.09V427.34Z" fill="#40403F"/>
<path d="M1218.27 428.2C1217.76 428.2 1217.59 427.89 1217.59 427.34V400.09C1217.59 399.49 1217.81 399.23 1218.36 399.23H1227.26C1234.53 399.23 1236.97 402.29 1236.97 405.79V421.62C1236.97 425.11 1234.54 428.18 1227.26 428.18H1218.27V428.2ZM1221.72 402.78V424.65H1227.26C1231.09 424.65 1232.8 423.25 1232.8 420.95V406.48C1232.8 404.18 1231.1 402.78 1227.26 402.78H1221.72Z" fill="#40403F"/>
<path d="M1268.32 405.16C1268.32 402.61 1266.91 400.82 1261.98 400.82C1257.05 400.82 1255.64 402.61 1255.64 405.16V406.74C1255.64 408.9 1257.17 409.93 1258.32 410.34L1266.49 413.46C1268.62 414.26 1270.74 415.88 1270.74 418.78V422.52C1270.74 425.85 1268.7 428.52 1261.93 428.52C1255.16 428.52 1253.07 425.85 1253.07 422.52V420.32C1253.07 419.93 1253.24 419.76 1253.58 419.76H1254.81C1255.15 419.76 1255.32 419.94 1255.32 420.32V422.27C1255.32 424.84 1256.89 426.63 1261.88 426.63C1266.87 426.63 1268.52 424.84 1268.52 422.27V419.25C1268.52 416.95 1266.65 415.94 1264.99 415.3L1257.07 412.24C1255.36 411.6 1253.41 409.9 1253.41 407.22V404.92C1253.41 401.59 1255.28 398.92 1261.97 398.92C1268.66 398.92 1270.53 401.59 1270.53 404.92V407C1270.53 407.33 1270.41 407.51 1270.02 407.51H1268.79C1268.45 407.51 1268.32 407.34 1268.32 407V405.17V405.16Z" fill="#40403F"/>
<path d="M1277.43 404.91C1277.43 401.58 1279.47 398.91 1286.29 398.91C1293.11 398.91 1295.23 401.58 1295.23 404.91V422.53C1295.23 425.84 1293.14 428.53 1286.29 428.53C1279.44 428.53 1277.43 425.84 1277.43 422.53V404.91ZM1292.93 405.24C1292.93 402.65 1291.26 400.86 1286.29 400.86C1281.32 400.86 1279.69 402.65 1279.69 405.24V422.18C1279.69 424.79 1281.35 426.58 1286.29 426.58C1291.23 426.58 1292.93 424.79 1292.93 422.18V405.24Z" fill="#40403F"/>
<path d="M1305.14 426.23H1317.74C1318.08 426.23 1318.25 426.35 1318.25 426.74V427.67C1318.25 428.06 1318.08 428.18 1317.74 428.18H1303.31C1303.05 428.18 1302.89 428.01 1302.89 427.67V399.74C1302.89 399.41 1303.06 399.23 1303.4 399.23H1304.68C1305.02 399.23 1305.15 399.4 1305.15 399.74V426.23H1305.14Z" fill="#40403F"/>
<path d="M1325.92 422.18C1325.92 424.79 1327.59 426.58 1332.56 426.58C1337.53 426.58 1339.2 424.79 1339.2 422.18V399.76C1339.2 399.41 1339.38 399.23 1339.71 399.23H1340.98C1341.32 399.23 1341.45 399.4 1341.45 399.76V422.53C1341.45 425.84 1339.41 428.53 1332.55 428.53C1325.69 428.53 1323.65 425.84 1323.65 422.53V399.76C1323.65 399.41 1323.82 399.23 1324.16 399.23H1325.43C1325.77 399.23 1325.9 399.4 1325.9 399.76V422.18H1325.92Z" fill="#40403F"/>
<path d="M1364.36 399.24C1364.7 399.24 1364.87 399.38 1364.87 399.77V400.7C1364.87 401.07 1364.7 401.21 1364.36 401.21H1356.61V427.7C1356.61 428.03 1356.49 428.21 1356.14 428.21H1354.86C1354.48 428.21 1354.35 428.03 1354.35 427.7V401.21H1346.64C1346.26 401.21 1346.13 401.09 1346.13 400.7V399.77C1346.13 399.38 1346.25 399.24 1346.64 399.24H1364.35H1364.36Z" fill="#40403F"/>
<path d="M1372.07 427.67C1372.07 428 1371.95 428.18 1371.6 428.18H1370.33C1369.99 428.18 1369.82 428.01 1369.82 427.67V399.74C1369.82 399.41 1370 399.23 1370.33 399.23H1371.6C1371.94 399.23 1372.07 399.4 1372.07 399.74V427.67Z" fill="#40403F"/>
<path d="M1379.77 404.91C1379.77 401.58 1381.81 398.91 1388.63 398.91C1395.45 398.91 1397.57 401.58 1397.57 404.91V422.53C1397.57 425.84 1395.48 428.53 1388.63 428.53C1381.78 428.53 1379.77 425.84 1379.77 422.53V404.91ZM1395.27 405.24C1395.27 402.65 1393.6 400.86 1388.63 400.86C1383.66 400.86 1382.03 402.65 1382.03 405.24V422.18C1382.03 424.79 1383.68 426.58 1388.63 426.58C1393.58 426.58 1395.27 424.79 1395.27 422.18V405.24Z" fill="#40403F"/>
<path d="M1422.98 427.67C1422.98 428 1422.86 428.18 1422.51 428.18H1421.36C1421.1 428.18 1420.98 428.1 1420.89 427.93L1408.71 406.25C1408.07 405.24 1407.38 403.83 1407.34 403.7V427.65C1407.34 428 1407.22 428.18 1406.87 428.18H1405.72C1405.38 428.18 1405.21 428.01 1405.21 427.65V399.72C1405.21 399.39 1405.39 399.21 1405.72 399.21H1406.87C1407.08 399.21 1407.21 399.29 1407.29 399.42L1419.59 421.25C1419.97 421.93 1420.82 423.68 1420.82 423.68V399.71C1420.82 399.38 1421 399.2 1421.33 399.2H1422.48C1422.82 399.2 1422.95 399.38 1422.95 399.71V427.64L1422.97 427.66L1422.98 427.67Z" fill="#40403F"/>
<path d="M1445.53 405.16C1445.53 402.61 1444.12 400.82 1439.19 400.82C1434.26 400.82 1432.85 402.61 1432.85 405.16V406.74C1432.85 408.9 1434.38 409.93 1435.53 410.34L1443.7 413.46C1445.83 414.26 1447.96 415.88 1447.96 418.78V422.52C1447.96 425.85 1445.92 428.52 1439.14 428.52C1432.36 428.52 1430.28 425.85 1430.28 422.52V420.32C1430.28 419.93 1430.45 419.76 1430.79 419.76H1432.02C1432.36 419.76 1432.53 419.94 1432.53 420.32V422.27C1432.53 424.84 1434.1 426.63 1439.09 426.63C1444.08 426.63 1445.73 424.84 1445.73 422.27V419.25C1445.73 416.95 1443.86 415.94 1442.2 415.3L1434.28 412.24C1432.57 411.6 1430.62 409.9 1430.62 407.22V404.92C1430.62 401.59 1432.49 398.92 1439.18 398.92C1445.87 398.92 1447.74 401.59 1447.74 404.92V407C1447.74 407.33 1447.62 407.51 1447.23 407.51H1446C1445.66 407.51 1445.53 407.34 1445.53 407V405.17V405.16Z" fill="#40403F"/>
</g>
<defs>
<filter id="filter0_d_1201_1356" x="3.9502" y="3.29004" width="1626.91" height="533.94" filterUnits="userSpaceOnUse" color-interpolation-filters="sRGB">
<feFlood flood-opacity="0" result="BackgroundImageFix"/>
<feColorMatrix in="SourceAlpha" type="matrix" values="0 0 0 0 0 0 0 0 0 0 0 0 0 0 0 0 0 0 127 0" result="hardAlpha"/>
<feOffset dx="-3" dy="6"/>
<feGaussianBlur stdDeviation="3"/>
<feColorMatrix type="matrix" values="0 0 0 0 0 0 0 0 0 0 0 0 0 0 0 0 0 0 0.1 0"/>
<feBlend mode="normal" in2="BackgroundImageFix" result="effect1_dropShadow_1201_1356"/>
<feBlend mode="normal" in="SourceGraphic" in2="effect1_dropShadow_1201_1356" result="shape"/>
</filter>
</defs>
</svg>
