<svg width="1306" height="400" viewBox="0 0 1306 400" fill="none" xmlns="http://www.w3.org/2000/svg">
<g clip-path="url(#clip0_1201_1398)">
<path d="M199.53 399.12C309.73 399.12 399.06 309.78 399.06 199.56C399.06 89.34 309.72 0 199.53 0C89.34 0 0 89.34 0 199.56C0 309.78 89.33 399.12 199.53 399.12Z" fill="white"/>
<path d="M212.35 321.1C278.93 319.65 330.9 267.47 332.43 208.53C333.7 159.82 300.34 113.22 249.65 95.9199" stroke="#076CE3" stroke-width="13.56" stroke-miterlimit="10" stroke-linecap="round"/>
<path d="M210.829 216.36C215.639 216.36 219.549 212.45 219.549 207.64C219.549 202.83 215.649 198.92 210.829 198.92C206.009 198.92 202.109 202.81 202.109 207.64C202.109 212.47 206.009 216.36 210.829 216.36Z" fill="#076CE3" stroke="#076CE3" stroke-width="1.94" stroke-miterlimit="10" stroke-linecap="round"/>
<path d="M103.68 95.98C113.87 111.58 156.6 165.46 156.6 165.46C156.6 165.46 204.64 106.7 210.46 95.98" stroke="#076CE3" stroke-width="13.56" stroke-miterlimit="10" stroke-linecap="round"/>
<path d="M103.68 273.55V95.98" stroke="#076CE3" stroke-width="13.56" stroke-linecap="round" stroke-linejoin="round"/>
<path d="M211.75 179.62V95.98" stroke="#076CE3" stroke-width="13.56" stroke-linecap="round" stroke-linejoin="round"/>
<path d="M210.46 321.16V237.52" stroke="#076CE3" stroke-width="13.56" stroke-linecap="round" stroke-linejoin="round"/>
<path d="M582.08 238.76L549.17 196.46V280.45H523.12V142.83H539.68L586.12 206.38L628.32 142.83H644.27V280.45H617.82V201.11L592.18 237.34L582.08 238.75V238.76ZM718.7 282.88C703.22 282.88 691.1 278.23 682.35 268.91C673.73 259.47 669.43 246.86 669.43 231.07C669.43 215.28 673.94 202.94 682.96 193.62C692.11 184.32 704.56 179.67 720.31 179.67C736.06 179.67 749.19 184.51 758.07 194.24C767.09 203.81 771.6 216.42 771.6 232.08C771.6 247.74 766.75 260.15 757.06 269.32C747.37 278.37 734.58 282.88 718.69 282.88H718.7ZM744.55 232.08C744.55 222.78 742.46 215.5 738.29 210.23C734.25 204.82 728.46 202.13 720.92 202.13C713.38 202.13 707.26 204.49 702.95 209.22C698.64 213.95 696.49 221.15 696.49 230.86C696.49 240.57 698.31 247.93 701.94 252.93C705.71 257.93 711.43 260.43 719.1 260.43C726.77 260.43 732.76 258.2 737.48 253.75C742.19 249.16 744.55 241.93 744.55 232.09V232.08ZM820.04 137.57V185.33C823.94 183.18 828.05 181.49 832.36 180.27C836.8 179.05 840.77 178.45 844.27 178.45C858.67 178.45 869.71 183.45 877.39 193.43C885.06 203.41 888.9 215.83 888.9 230.67C888.9 245.51 884.93 257.93 876.99 267.91C869.18 277.89 858.28 282.89 844.28 282.89C839.7 282.89 834.59 281.94 828.93 280.06C823.28 278.16 818.23 275.53 813.79 272.15L807.33 280.46H794V139.79L820.05 137.56L820.04 137.57ZM837.41 260.43C846.43 260.43 852.75 257.17 856.39 250.7C860.02 244.09 861.84 237.41 861.84 230.67C861.84 222.98 860.22 216.1 856.99 210.04C853.76 203.96 847.23 200.91 837.4 200.91C834.57 200.91 831.61 201.45 828.51 202.54C825.55 203.49 822.72 204.83 820.03 206.59V254.76C822.72 256.39 825.55 257.72 828.51 258.81C831.61 259.9 834.57 260.44 837.4 260.44L837.41 260.43ZM923.04 138.79C927.21 138.79 930.71 140.2 933.54 143.03C936.5 145.86 937.98 149.37 937.98 153.55C937.98 157.73 936.5 161.24 933.54 164.07C930.71 166.92 927.21 168.33 923.04 168.33C918.87 168.33 915.57 166.92 912.74 164.07C909.91 161.24 908.5 157.73 908.5 153.55C908.5 149.37 909.91 145.86 912.74 143.03C915.57 140.2 919 138.79 923.04 138.79ZM936.17 182.29V280.46H909.92V182.29H936.17ZM974.71 138.79C978.88 138.79 982.38 140.2 985.21 143.03C988.17 145.86 989.65 149.37 989.65 153.55C989.65 157.73 988.17 161.24 985.21 164.07C982.38 166.92 978.88 168.33 974.71 168.33C970.54 168.33 967.24 166.92 964.41 164.07C961.58 161.24 960.17 157.73 960.17 153.55C960.17 149.37 961.58 145.86 964.41 143.03C967.24 140.2 970.67 138.79 974.71 138.79ZM987.84 182.29V280.46H961.59V182.29H987.84ZM1040.71 137.57V280.46H1014.66V139.79L1040.71 137.56V137.57ZM1112.52 235.32H1059.82L1057.6 214.69H1110.5L1112.52 235.32ZM1158.7 142.84V280.46H1132.65V142.83H1158.7V142.84ZM1242.67 280.46H1192.59V142.83H1243.47C1264.61 142.83 1280.29 149.22 1290.52 162.05C1300.75 174.86 1305.87 191.13 1305.87 210.82C1305.87 232.15 1300.35 249.09 1289.31 261.62C1278.27 274.17 1262.72 280.45 1242.67 280.45V280.46ZM1243.68 165.1H1218.64V258.39H1242.27C1253.31 258.39 1262.13 254.75 1268.72 247.46C1275.45 240.18 1278.82 227.97 1278.82 210.82C1278.82 196.52 1275.99 185.32 1270.34 177.22C1264.69 169.14 1255.8 165.09 1243.69 165.09L1243.68 165.1Z" fill="white"/>
</g>
<defs>
<clipPath id="clip0_1201_1398">
<rect width="1305.86" height="399.12" fill="white"/>
</clipPath>
</defs>
</svg>
