<svg width="318" height="314" viewBox="0 0 318 314" fill="none" xmlns="http://www.w3.org/2000/svg">
<g clip-path="url(#clip0_1201_1234)">
<path d="M151.43 304.25C238.75 302.36 306.93 233.91 308.94 156.61C310.61 92.7299 266.85 31.5999 200.37 8.8999" stroke="#076CE3" stroke-width="17.79" stroke-miterlimit="10" stroke-linecap="round"/>
<path d="M149.43 166.87C155.74 166.87 160.86 161.75 160.86 155.43C160.86 149.11 155.74 143.99 149.43 143.99C143.12 143.99 138 149.11 138 155.43C138 161.75 143.12 166.87 149.43 166.87Z" fill="#076CE3" stroke="#076CE3" stroke-width="2.54" stroke-miterlimit="10" stroke-linecap="round"/>
<path d="M8.88965 8.97998C22.2596 29.43 78.2997 100.12 78.2997 100.12C78.2997 100.12 141.3 23.04 148.95 8.97998" stroke="#076CE3" stroke-width="17.79" stroke-miterlimit="10" stroke-linecap="round"/>
<path d="M8.88965 241.89V8.97998" stroke="#076CE3" stroke-width="17.79" stroke-linecap="round" stroke-linejoin="round"/>
<path d="M150.64 118.68V8.97998" stroke="#076CE3" stroke-width="17.79" stroke-linecap="round" stroke-linejoin="round"/>
<path d="M148.95 304.33V194.63" stroke="#076CE3" stroke-width="17.79" stroke-linecap="round" stroke-linejoin="round"/>
</g>
<defs>
<clipPath id="clip0_1201_1234">
<rect width="317.88" height="313.22" fill="white"/>
</clipPath>
</defs>
</svg>
