<svg width="1591" height="541" viewBox="0 0 1591 541" fill="none" xmlns="http://www.w3.org/2000/svg">
<g filter="url(#filter0_d_1201_1331)">
<path d="M273.1 3.24023H1323.22C1467.35 3.24023 1584.19 120.08 1584.19 264.21C1584.19 408.34 1467.35 525.18 1323.22 525.18H273.1C128.97 525.18 12.1299 408.34 12.1299 264.21C12.1299 120.08 128.97 3.24023 273.1 3.24023Z" fill="#F7F7F7"/>
<path d="M298.38 464.81C409.15 464.81 498.94 375.01 498.94 264.22C498.94 153.43 409.15 63.6201 298.38 63.6201C187.61 63.6201 97.8203 153.42 97.8203 264.21C97.8203 375 187.61 464.8 298.38 464.8V464.81Z" fill="#076CE3"/>
<path d="M311.27 386.38C378.19 384.92 430.43 332.47 431.98 273.23C433.26 224.27 399.73 177.43 348.78 160.04" stroke="white" stroke-width="13.63" stroke-miterlimit="10" stroke-linecap="round"/>
<path d="M307.79 281.1C312.63 281.1 316.55 277.17 316.55 272.34C316.55 267.51 312.63 263.58 307.79 263.58C302.95 263.58 299.03 267.5 299.03 272.34C299.03 277.18 302.95 281.1 307.79 281.1Z" fill="white" stroke="white" stroke-width="1.95" stroke-miterlimit="10" stroke-linecap="round"/>
<path d="M202.04 160.1C212.29 175.78 255.23 229.94 255.23 229.94C255.23 229.94 303.51 170.87 309.37 160.1" stroke="white" stroke-width="13.63" stroke-miterlimit="10" stroke-linecap="round"/>
<path d="M202.04 338.59V160.1" stroke="white" stroke-width="13.63" stroke-linecap="round" stroke-linejoin="round"/>
<path d="M310.67 244.17V160.1" stroke="white" stroke-width="13.63" stroke-linecap="round" stroke-linejoin="round"/>
<path d="M309.37 386.44V302.37" stroke="white" stroke-width="13.63" stroke-linecap="round" stroke-linejoin="round"/>
<path d="M682.79 303.16L649.78 260.82V344.88H623.65V207.15H640.26L686.84 270.76L729.17 207.15H745.17V344.88H718.64V265.5L692.92 301.74L682.79 303.16V303.16ZM819.83 347.31C804.3 347.31 792.15 342.66 783.37 333.35C774.73 323.89 770.41 311.27 770.41 295.47C770.41 279.67 774.93 267.31 783.98 258C793.16 248.67 805.65 244.02 821.45 244.02C837.25 244.02 850.41 248.89 859.33 258.61C868.38 268.19 872.9 280.83 872.9 296.49C872.9 312.15 868.04 324.57 858.32 333.75C848.6 342.81 835.77 347.32 819.84 347.32L819.83 347.31ZM845.76 296.48C845.76 287.15 843.67 279.87 839.48 274.61C835.43 269.2 829.62 266.51 822.06 266.51C814.5 266.51 808.35 268.87 804.03 273.6C799.71 278.31 797.55 285.54 797.55 295.26C797.55 304.98 799.37 312.34 803.02 317.34C806.8 322.35 812.54 324.84 820.24 324.84C827.94 324.84 833.94 322.6 838.67 318.16C843.39 313.56 845.76 306.34 845.76 296.48V296.48ZM921.48 201.89V249.68C925.4 247.52 929.52 245.84 933.84 244.62C938.3 243.41 942.28 242.81 945.79 242.81C960.24 242.81 971.31 247.8 979.01 257.79C986.71 267.78 990.55 280.21 990.55 295.06C990.55 309.91 986.57 322.35 978.6 332.34C970.77 342.33 959.83 347.32 945.79 347.32C941.2 347.32 936.07 346.39 930.4 344.5C924.73 342.61 919.67 339.96 915.21 336.59L908.73 344.89H895.36V204.11L921.49 201.89H921.48ZM938.9 324.84C947.95 324.84 954.29 321.59 957.94 315.12C961.59 308.5 963.41 301.82 963.41 295.06C963.41 287.37 961.79 280.47 958.55 274.4C955.31 268.33 948.76 265.29 938.9 265.29C936.06 265.29 933.09 265.84 929.99 266.91C927.02 267.86 924.18 269.21 921.48 270.96V319.18C924.18 320.8 927.02 322.14 929.99 323.23C933.1 324.3 936.07 324.85 938.9 324.85V324.84ZM1024.79 203.1C1028.98 203.1 1032.49 204.52 1035.32 207.36C1038.29 210.18 1039.78 213.71 1039.78 217.9C1039.78 222.09 1038.29 225.59 1035.32 228.42C1032.48 231.26 1028.97 232.68 1024.79 232.68C1020.61 232.68 1017.3 231.26 1014.46 228.42C1011.62 225.6 1010.21 222.09 1010.21 217.9C1010.21 213.71 1011.63 210.19 1014.46 207.36C1017.3 204.52 1020.74 203.1 1024.79 203.1ZM1037.96 246.65V344.88H1011.63V246.65H1037.96ZM1091 201.9V344.89H1064.87V204.11L1091 201.89V201.9ZM1168.09 347.32C1151.08 347.32 1137.64 342.67 1127.78 333.36C1118.06 324.03 1113.2 311.55 1113.2 295.89C1113.2 280.23 1117.59 267.67 1126.37 258.21C1135.28 248.76 1147.37 244.03 1162.63 244.03C1177.89 244.03 1189.3 249.17 1196.45 259.44C1203.74 269.57 1207.39 281.58 1207.39 295.49V303.59H1141.16C1142.38 310.08 1145.35 315.28 1150.07 319.19C1154.8 322.97 1161.01 324.86 1168.7 324.86C1173.16 324.86 1177.14 324.32 1180.65 323.24C1184.3 322.01 1188.48 320.34 1193.21 318.18L1200.91 337.21C1196.32 340.72 1190.72 343.29 1184.1 344.9C1177.62 346.54 1172.29 347.33 1168.1 347.33L1168.09 347.32ZM1182.47 285.95C1181.12 279.33 1178.69 274.48 1175.18 271.36C1171.67 268.13 1167.28 266.51 1162.01 266.51C1156.74 266.51 1152.09 268.18 1148.44 271.57C1144.79 274.8 1142.43 279.59 1141.35 285.94H1182.47V285.95ZM1273.4 299.72H1220.54L1218.31 279.06H1271.38L1273.41 299.72H1273.4ZM1319.72 207.15V344.88H1293.59V207.15H1319.72V207.15ZM1403.95 344.88H1353.72V207.15H1404.76C1425.96 207.15 1441.69 213.58 1451.95 226.39C1462.21 239.22 1467.34 255.5 1467.34 275.21C1467.34 296.54 1461.81 313.48 1450.73 326.04C1439.66 338.6 1424.06 344.87 1403.94 344.87L1403.95 344.88ZM1404.96 229.43H1379.84V322.81H1403.54C1414.61 322.81 1423.46 319.17 1430.07 311.87C1436.82 304.59 1440.2 292.36 1440.2 275.22C1440.2 260.91 1437.36 249.69 1431.69 241.59C1426.02 233.49 1417.11 229.44 1404.95 229.44L1404.96 229.43Z" fill="#076CE3"/>
<path d="M1116.46 374.23C1094.35 374.23 1076.42 392.17 1076.42 414.27C1076.42 436.37 1094.34 454.31 1116.46 454.31C1138.58 454.31 1156.49 436.39 1156.49 414.27C1156.49 392.15 1138.57 374.23 1116.46 374.23ZM1116.46 449.73C1096.88 449.73 1081 433.86 1081 414.27C1081 394.68 1096.88 378.81 1116.46 378.81C1136.04 378.81 1151.92 394.68 1151.92 414.27C1151.92 433.86 1136.04 449.73 1116.46 449.73Z" fill="#40403F"/>
<path d="M1108.6 411L1107.51 410.71L1106.85 410.61L1105.29 410.2L1104.17 409.95L1103.67 409.81L1102.94 409.6C1100.59 408.88 1100.2 407.98 1100.2 407.36C1100.2 407.17 1100.24 406.91 1100.33 406.6C1100.8 405.06 1102.69 404.65 1104 404.65C1105.7 404.65 1106.6 404.92 1108.04 405.95L1108.6 406.38L1109.57 407.18C1110.18 407.59 1110.92 407.74 1111.59 407.61C1112.39 407.45 1113.01 406.99 1113.42 406.27C1114.69 404.09 1113.08 402.45 1111.56 401.25C1110.82 400.71 1110.03 400.26 1109.18 399.93C1108.23 399.5 1107.25 399.23 1106.23 399.11C1105.6 399.01 1105.17 398.95 1104.94 398.95H1104.2C1101.95 398.95 1099.93 399.48 1098.22 400.62C1096.6 401.69 1095.47 403.17 1094.91 405.04C1094.65 405.9 1094.51 406.75 1094.51 407.67C1094.51 411.62 1097.17 414.08 1101.3 415.27L1102.31 415.54C1103.51 415.81 1104.7 416.1 1105.91 416.4L1106.97 416.69C1107.52 416.81 1107.95 417.02 1108.19 417.2C1108.8 417.59 1109.16 418.17 1109.16 419.15C1109.16 421.51 1106.85 422.46 1104.97 422.48H1104.5L1103.76 422.4C1102.89 422.32 1101.98 422.01 1101.1 421.47C1100.71 421.28 1100.07 420.81 1099.81 420.44C1098.93 419.23 1097.96 417.73 1096.35 417.73C1095.34 417.73 1094.52 418.28 1094.07 419.21C1093.84 419.7 1093.71 420.22 1093.71 420.77C1093.71 424.76 1099.63 427.68 1102.73 428.09C1103.43 428.17 1104.11 428.21 1104.73 428.21C1109.18 428.21 1113.53 426.01 1114.64 421.1C1114.79 420.34 1114.88 419.62 1114.88 418.92C1114.88 414.81 1112.32 411.93 1108.63 411.01" fill="#40403F"/>
<path d="M1138.09 422.86L1128.78 413.22L1137.27 404.55C1138.07 403.75 1138.73 402.62 1138.39 401.28C1138.04 399.78 1136.72 398.9 1135.3 399.1C1134.56 399.26 1133.89 399.78 1133.4 400.31L1125.22 408.94V401.42C1125 399.78 1123.91 398.99 1122.43 398.99C1120.28 398.99 1119.64 400.94 1119.64 402.63V425.28C1119.64 427.03 1120.77 428.42 1122.48 428.42C1124.61 428.42 1125.22 426.45 1125.22 424.84V417.73L1134.17 427.29C1134.78 427.91 1135.56 428.34 1136.47 428.34C1136.77 428.34 1137.06 428.28 1137.33 428.22C1138.51 427.73 1139.27 426.82 1139.27 425.42C1139.27 424.84 1139.08 424.21 1138.75 423.71L1138.09 422.89V422.87V422.86Z" fill="#40403F"/>
<path d="M1172.77 427.3C1172.77 427.88 1172.6 428.16 1172 428.16H1169.4C1168.84 428.16 1168.63 427.89 1168.63 427.3V400.05C1168.63 399.45 1168.85 399.19 1169.4 399.19H1172C1172.6 399.19 1172.77 399.44 1172.77 400.05V427.3Z" fill="#40403F"/>
<path d="M1180.44 428.16C1179.93 428.16 1179.76 427.85 1179.76 427.3V400.05C1179.76 399.45 1179.98 399.19 1180.53 399.19H1189.43C1196.7 399.19 1199.14 402.25 1199.14 405.75V421.58C1199.14 425.07 1196.71 428.14 1189.43 428.14H1180.44V428.16ZM1183.89 402.74V424.61H1189.43C1193.26 424.61 1194.97 423.21 1194.97 420.91V406.44C1194.97 404.14 1193.27 402.74 1189.43 402.74H1183.89Z" fill="#40403F"/>
<path d="M1230.49 405.12C1230.49 402.57 1229.08 400.78 1224.15 400.78C1219.22 400.78 1217.81 402.57 1217.81 405.12V406.7C1217.81 408.86 1219.34 409.89 1220.49 410.3L1228.66 413.42C1230.79 414.22 1232.91 415.84 1232.91 418.74V422.48C1232.91 425.81 1230.87 428.48 1224.1 428.48C1217.33 428.48 1215.24 425.81 1215.24 422.48V420.28C1215.24 419.89 1215.41 419.72 1215.75 419.72H1216.98C1217.32 419.72 1217.49 419.9 1217.49 420.28V422.23C1217.49 424.8 1219.06 426.59 1224.05 426.59C1229.04 426.59 1230.69 424.8 1230.69 422.23V419.21C1230.69 416.91 1228.82 415.9 1227.16 415.26L1219.24 412.2C1217.53 411.56 1215.58 409.86 1215.58 407.18V404.88C1215.58 401.55 1217.45 398.88 1224.14 398.88C1230.83 398.88 1232.7 401.55 1232.7 404.88V406.96C1232.7 407.29 1232.58 407.47 1232.19 407.47H1230.96C1230.62 407.47 1230.49 407.3 1230.49 406.96V405.13V405.12Z" fill="#40403F"/>
<path d="M1239.6 404.86C1239.6 401.53 1241.64 398.86 1248.46 398.86C1255.28 398.86 1257.4 401.53 1257.4 404.86V422.48C1257.4 425.79 1255.31 428.48 1248.46 428.48C1241.61 428.48 1239.6 425.79 1239.6 422.48V404.86ZM1255.1 405.19C1255.1 402.6 1253.43 400.81 1248.46 400.81C1243.49 400.81 1241.86 402.6 1241.86 405.19V422.13C1241.86 424.74 1243.52 426.53 1248.46 426.53C1253.4 426.53 1255.1 424.74 1255.1 422.13V405.19Z" fill="#40403F"/>
<path d="M1267.31 426.19H1279.91C1280.25 426.19 1280.42 426.31 1280.42 426.7V427.63C1280.42 428.02 1280.25 428.14 1279.91 428.14H1265.48C1265.22 428.14 1265.06 427.97 1265.06 427.63V399.7C1265.06 399.37 1265.23 399.19 1265.57 399.19H1266.85C1267.19 399.19 1267.32 399.36 1267.32 399.7V426.19H1267.31Z" fill="#40403F"/>
<path d="M1288.09 422.14C1288.09 424.75 1289.76 426.54 1294.73 426.54C1299.7 426.54 1301.37 424.75 1301.37 422.14V399.72C1301.37 399.37 1301.55 399.19 1301.88 399.19H1303.15C1303.49 399.19 1303.62 399.36 1303.62 399.72V422.49C1303.62 425.8 1301.58 428.49 1294.72 428.49C1287.86 428.49 1285.82 425.8 1285.82 422.49V399.72C1285.82 399.37 1285.99 399.19 1286.33 399.19H1287.6C1287.94 399.19 1288.07 399.36 1288.07 399.72V422.14H1288.09Z" fill="#40403F"/>
<path d="M1326.53 399.2C1326.87 399.2 1327.04 399.34 1327.04 399.73V400.66C1327.04 401.03 1326.87 401.17 1326.53 401.17H1318.78V427.66C1318.78 427.99 1318.66 428.17 1318.31 428.17H1317.03C1316.65 428.17 1316.52 427.99 1316.52 427.66V401.17H1308.81C1308.43 401.17 1308.3 401.05 1308.3 400.66V399.73C1308.3 399.34 1308.42 399.2 1308.81 399.2H1326.52H1326.53Z" fill="#40403F"/>
<path d="M1334.24 427.63C1334.24 427.96 1334.12 428.14 1333.77 428.14H1332.5C1332.16 428.14 1331.99 427.97 1331.99 427.63V399.7C1331.99 399.37 1332.17 399.19 1332.5 399.19H1333.77C1334.11 399.19 1334.24 399.36 1334.24 399.7V427.63Z" fill="#40403F"/>
<path d="M1341.94 404.86C1341.94 401.53 1343.98 398.86 1350.8 398.86C1357.62 398.86 1359.74 401.53 1359.74 404.86V422.48C1359.74 425.79 1357.65 428.48 1350.8 428.48C1343.95 428.48 1341.94 425.79 1341.94 422.48V404.86ZM1357.44 405.19C1357.44 402.6 1355.77 400.81 1350.8 400.81C1345.83 400.81 1344.2 402.6 1344.2 405.19V422.13C1344.2 424.74 1345.85 426.53 1350.8 426.53C1355.75 426.53 1357.44 424.74 1357.44 422.13V405.19Z" fill="#40403F"/>
<path d="M1385.15 427.63C1385.15 427.96 1385.03 428.14 1384.68 428.14H1383.53C1383.27 428.14 1383.15 428.06 1383.06 427.89L1370.88 406.21C1370.24 405.2 1369.55 403.79 1369.51 403.66V427.61C1369.51 427.96 1369.39 428.14 1369.04 428.14H1367.89C1367.55 428.14 1367.38 427.97 1367.38 427.61V399.68C1367.38 399.35 1367.56 399.17 1367.89 399.17H1369.04C1369.25 399.17 1369.38 399.25 1369.46 399.38L1381.76 421.21C1382.14 421.89 1382.99 423.64 1382.99 423.64V399.67C1382.99 399.34 1383.17 399.16 1383.5 399.16H1384.65C1384.99 399.16 1385.12 399.34 1385.12 399.67V427.6L1385.14 427.62L1385.15 427.63Z" fill="#40403F"/>
<path d="M1407.71 405.12C1407.71 402.57 1406.3 400.78 1401.37 400.78C1396.44 400.78 1395.03 402.57 1395.03 405.12V406.7C1395.03 408.86 1396.56 409.89 1397.71 410.3L1405.88 413.42C1408.01 414.22 1410.14 415.84 1410.14 418.74V422.48C1410.14 425.81 1408.1 428.48 1401.32 428.48C1394.54 428.48 1392.46 425.81 1392.46 422.48V420.28C1392.46 419.89 1392.63 419.72 1392.97 419.72H1394.2C1394.54 419.72 1394.71 419.9 1394.71 420.28V422.23C1394.71 424.8 1396.28 426.59 1401.27 426.59C1406.26 426.59 1407.91 424.8 1407.91 422.23V419.21C1407.91 416.91 1406.04 415.9 1404.38 415.26L1396.46 412.2C1394.75 411.56 1392.8 409.86 1392.8 407.18V404.88C1392.8 401.55 1394.67 398.88 1401.36 398.88C1408.05 398.88 1409.92 401.55 1409.92 404.88V406.96C1409.92 407.29 1409.8 407.47 1409.41 407.47H1408.18C1407.84 407.47 1407.71 407.3 1407.71 406.96V405.13V405.12Z" fill="#40403F"/>
</g>
<defs>
<filter id="filter0_d_1201_1331" x="3.12988" y="3.24023" width="1584.06" height="533.94" filterUnits="userSpaceOnUse" color-interpolation-filters="sRGB">
<feFlood flood-opacity="0" result="BackgroundImageFix"/>
<feColorMatrix in="SourceAlpha" type="matrix" values="0 0 0 0 0 0 0 0 0 0 0 0 0 0 0 0 0 0 127 0" result="hardAlpha"/>
<feOffset dx="-3" dy="6"/>
<feGaussianBlur stdDeviation="3"/>
<feColorMatrix type="matrix" values="0 0 0 0 0 0 0 0 0 0 0 0 0 0 0 0 0 0 0.1 0"/>
<feBlend mode="normal" in2="BackgroundImageFix" result="effect1_dropShadow_1201_1331"/>
<feBlend mode="normal" in="SourceGraphic" in2="effect1_dropShadow_1201_1331" result="shape"/>
</filter>
</defs>
</svg>
