<svg width="1289" height="394" viewBox="0 0 1289 394" fill="none" xmlns="http://www.w3.org/2000/svg">
<g clip-path="url(#clip0_1201_1261)">
<path d="M196.92 393.91C305.68 393.91 393.84 305.74 393.84 196.95C393.84 88.16 305.68 0 196.92 0C88.16 0 0 88.17 0 196.96C0 305.75 88.17 393.92 196.92 393.92V393.91Z" fill="#076CE3"/>
<path d="M209.58 316.91C275.29 315.48 326.58 263.98 328.1 205.81C329.36 157.74 296.43 111.75 246.4 94.6699" stroke="white" stroke-width="13.39" stroke-miterlimit="10" stroke-linecap="round"/>
<path d="M208.07 213.54C212.82 213.54 216.67 209.68 216.67 204.94C216.67 200.2 212.82 196.34 208.07 196.34C203.32 196.34 199.47 200.18 199.47 204.94C199.47 209.7 203.32 213.54 208.07 213.54Z" fill="white" stroke="white" stroke-width="1.91" stroke-miterlimit="10" stroke-linecap="round"/>
<path d="M102.33 94.73C112.39 110.12 154.56 163.3 154.56 163.3C154.56 163.3 201.97 105.3 207.72 94.73" stroke="white" stroke-width="13.39" stroke-miterlimit="10" stroke-linecap="round"/>
<path d="M102.33 269.98V94.73" stroke="white" stroke-width="13.39" stroke-linecap="round" stroke-linejoin="round"/>
<path d="M208.99 177.28V94.73" stroke="white" stroke-width="13.39" stroke-linecap="round" stroke-linejoin="round"/>
<path d="M207.72 316.97V234.42" stroke="white" stroke-width="13.39" stroke-linecap="round" stroke-linejoin="round"/>
<path d="M574.49 235.64L542.01 193.9V276.79H516.3V140.97H532.64L578.48 203.69L620.13 140.97H635.88V276.79H609.77V198.49L584.46 234.25L574.5 235.65L574.49 235.64ZM709.33 279.18C694.05 279.18 682.09 274.59 673.46 265.39C664.96 256.08 660.71 243.63 660.71 228.04C660.71 212.45 665.16 200.27 674.06 191.08C683.09 181.9 695.38 177.31 710.93 177.31C726.48 177.31 739.43 182.09 748.2 191.69C757.1 201.14 761.55 213.58 761.55 229.04C761.55 244.5 756.77 256.75 747.2 265.79C737.64 274.72 725.01 279.18 709.33 279.18V279.18ZM734.84 229.04C734.84 219.86 732.78 212.67 728.66 207.47C724.67 202.13 718.96 199.48 711.52 199.48C704.08 199.48 698.04 201.81 693.78 206.48C689.53 211.15 687.4 218.26 687.4 227.84C687.4 237.42 689.19 244.69 692.78 249.62C696.5 254.55 702.15 257.02 709.72 257.02C717.29 257.02 723.2 254.82 727.86 250.42C732.51 245.89 734.84 238.76 734.84 229.04V229.04ZM809.34 135.76V182.9C813.19 180.78 817.24 179.11 821.5 177.91C825.88 176.71 829.8 176.11 833.26 176.11C847.48 176.11 858.37 181.04 865.94 190.89C873.51 200.74 877.3 213 877.3 227.64C877.3 242.28 873.38 254.54 865.54 264.39C857.83 274.24 847.07 279.17 833.25 279.17C828.73 279.17 823.69 278.23 818.1 276.38C812.52 274.51 807.54 271.91 803.15 268.58L796.77 276.78H783.62V137.97L809.33 135.77L809.34 135.76ZM826.48 257.01C835.38 257.01 841.62 253.8 845.21 247.41C848.8 240.89 850.59 234.29 850.59 227.64C850.59 220.05 849 213.26 845.81 207.27C842.62 201.27 836.18 198.26 826.48 198.26C823.69 198.26 820.77 198.8 817.71 199.87C814.79 200.81 812 202.13 809.34 203.87V251.41C812 253.02 814.79 254.34 817.71 255.41C820.77 256.48 823.69 257.02 826.48 257.02V257.01ZM910.99 136.96C915.11 136.96 918.56 138.36 921.35 141.15C924.27 143.94 925.73 147.4 925.73 151.53C925.73 155.66 924.27 159.12 921.35 161.91C918.56 164.72 915.1 166.12 910.99 166.12C906.88 166.12 903.62 164.72 900.83 161.91C898.04 159.12 896.64 155.66 896.64 151.53C896.64 147.4 898.04 143.94 900.83 141.15C903.62 138.36 907.01 136.96 910.99 136.96ZM923.95 179.89V276.78H898.04V179.89H923.95ZM961.98 136.96C966.1 136.96 969.55 138.36 972.34 141.15C975.26 143.94 976.72 147.4 976.72 151.53C976.72 155.66 975.26 159.12 972.34 161.91C969.55 164.72 966.09 166.12 961.98 166.12C957.87 166.12 954.61 164.72 951.82 161.91C949.03 159.12 947.64 155.66 947.64 151.53C947.64 147.4 949.03 143.94 951.82 141.15C954.61 138.36 958 136.96 961.98 136.96ZM974.94 179.89V276.78H949.03V179.89H974.94ZM1027.12 135.76V276.79H1001.41V137.97L1027.12 135.77V135.76ZM1097.99 232.23H1045.98L1043.79 211.87H1096L1097.99 232.23V232.23ZM1143.57 140.96V276.78H1117.86V140.97H1143.57V140.96ZM1226.45 276.78H1177.03V140.97H1227.25C1248.11 140.97 1263.59 147.28 1273.68 159.94C1283.78 172.58 1288.83 188.64 1288.83 208.07C1288.83 229.12 1283.38 245.84 1272.49 258.21C1261.6 270.6 1246.25 276.8 1226.45 276.8V276.78ZM1227.45 162.93H1202.74V255H1226.06C1236.95 255 1245.66 251.41 1252.17 244.22C1258.81 237.03 1262.13 224.98 1262.13 208.06C1262.13 193.95 1259.34 182.9 1253.76 174.9C1248.18 166.93 1239.41 162.93 1227.45 162.93Z" fill="#076CE3"/>
</g>
<defs>
<clipPath id="clip0_1201_1261">
<rect width="1288.83" height="393.91" fill="white"/>
</clipPath>
</defs>
</svg>
