<svg width="1363" height="400" viewBox="0 0 1363 400" fill="none" xmlns="http://www.w3.org/2000/svg">
<g clip-path="url(#clip0_1201_1408)">
<path d="M199.53 399.12C309.73 399.12 399.06 309.78 399.06 199.56C399.06 89.34 309.72 0 199.53 0C89.34 0 0 89.34 0 199.56C0 309.78 89.33 399.12 199.53 399.12Z" fill="white"/>
<path d="M212.35 321.1C278.93 319.65 330.9 267.47 332.43 208.53C333.7 159.82 300.34 113.23 249.65 95.9199" stroke="#076CE3" stroke-width="13.56" stroke-miterlimit="10" stroke-linecap="round"/>
<path d="M210.829 216.36C215.639 216.36 219.549 212.45 219.549 207.64C219.549 202.83 215.649 198.92 210.829 198.92C206.009 198.92 202.109 202.81 202.109 207.64C202.109 212.47 206.009 216.36 210.829 216.36Z" fill="#076CE3" stroke="#076CE3" stroke-width="1.94" stroke-miterlimit="10" stroke-linecap="round"/>
<path d="M103.68 95.98C113.87 111.58 156.6 165.46 156.6 165.46C156.6 165.46 204.64 106.7 210.46 95.98" stroke="#076CE3" stroke-width="13.56" stroke-miterlimit="10" stroke-linecap="round"/>
<path d="M103.68 273.55V95.98" stroke="#076CE3" stroke-width="13.56" stroke-linecap="round" stroke-linejoin="round"/>
<path d="M211.75 179.62V95.98" stroke="#076CE3" stroke-width="13.56" stroke-linecap="round" stroke-linejoin="round"/>
<path d="M210.46 321.16V237.52" stroke="#076CE3" stroke-width="13.56" stroke-linecap="round" stroke-linejoin="round"/>
<path d="M581.96 237.5L549.12 195.38V279H523.13V141.98H539.65L585.99 205.26L628.1 141.98H644.02V279H617.62V200.01L592.03 236.09L581.96 237.5V237.5ZM718.3 281.42C702.85 281.42 690.76 276.79 682.03 267.51C673.43 258.11 669.13 245.56 669.13 229.83C669.13 214.1 673.63 201.83 682.63 192.55C691.76 183.29 704.19 178.66 719.91 178.66C735.63 178.66 748.72 183.48 757.59 193.17C766.59 202.7 771.09 215.26 771.09 230.83C771.09 246.4 766.25 258.79 756.58 267.91C746.91 276.92 734.15 281.41 718.3 281.41V281.42ZM744.09 230.83C744.09 221.57 742.01 214.32 737.84 209.07C733.81 203.7 728.03 201.01 720.51 201.01C712.99 201.01 706.87 203.37 702.58 208.06C698.28 212.77 696.13 219.96 696.13 229.62C696.13 239.28 697.94 246.61 701.57 251.59C705.33 256.55 711.04 259.03 718.7 259.03C726.36 259.03 732.33 256.82 737.04 252.38C741.74 247.81 744.09 240.64 744.09 230.82V230.83ZM819.42 136.75V184.3C823.32 182.15 827.41 180.46 831.71 179.26C836.14 178.06 840.11 177.44 843.6 177.44C857.97 177.44 868.99 182.42 876.65 192.36C884.31 202.3 888.14 214.66 888.14 229.44C888.14 244.22 884.18 256.56 876.25 266.5C868.46 276.44 857.58 281.42 843.61 281.42C839.04 281.42 833.94 280.47 828.3 278.59C822.66 276.71 817.62 274.09 813.19 270.74L806.74 278.99H793.44V138.96L819.43 136.75H819.42ZM836.75 259.04C845.75 259.04 852.06 255.82 855.69 249.37C859.32 242.78 861.13 236.14 861.13 229.43C861.13 221.76 859.52 214.92 856.29 208.87C853.07 202.82 846.55 199.8 836.74 199.8C833.92 199.8 830.96 200.34 827.87 201.41C824.92 202.36 822.09 203.7 819.41 205.44V253.39C822.1 255 824.92 256.35 827.87 257.42C830.96 258.5 833.91 259.03 836.74 259.03L836.75 259.04ZM922.2 137.95C926.36 137.95 929.86 139.36 932.68 142.17C935.63 145 937.11 148.49 937.11 152.65C937.11 156.81 935.63 160.3 932.68 163.13C929.86 165.96 926.37 167.35 922.2 167.35C918.03 167.35 914.74 165.96 911.92 163.13C909.1 160.3 907.69 156.81 907.69 152.65C907.69 148.49 909.1 145 911.92 142.17C914.74 139.36 918.17 137.95 922.2 137.95ZM935.3 181.27V279H909.11V181.27H935.3V181.27ZM988.06 136.75V279H962.07V138.96L988.06 136.75ZM1064.76 281.42C1047.83 281.42 1034.47 276.79 1024.66 267.51C1014.99 258.25 1010.15 245.81 1010.15 230.23C1010.15 214.65 1014.52 202.16 1023.25 192.76C1032.12 183.34 1044.14 178.66 1059.32 178.66C1074.5 178.66 1085.85 183.76 1092.97 193.97C1100.22 204.04 1103.85 216 1103.85 229.83V237.89H1037.96C1039.17 244.34 1042.13 249.51 1046.83 253.41C1051.53 257.17 1057.71 259.05 1065.37 259.05C1069.8 259.05 1073.77 258.53 1077.26 257.44C1080.89 256.24 1085.05 254.55 1089.75 252.4L1097.41 271.35C1092.84 274.84 1087.27 277.39 1080.69 279C1074.24 280.61 1068.94 281.42 1064.77 281.42H1064.76ZM1079.07 220.37C1077.73 213.78 1075.31 208.94 1071.82 205.86C1068.33 202.62 1063.96 201.02 1058.72 201.02C1053.48 201.02 1048.85 202.71 1045.22 206.06C1041.59 209.3 1039.24 214.06 1038.17 220.38H1079.07V220.37ZM1169.53 234.07H1116.94L1114.72 213.51H1167.51L1169.53 234.07ZM1215.62 141.98V279H1189.63V141.98H1215.62V141.98ZM1299.42 279H1249.45V141.98H1300.23C1321.32 141.98 1336.97 148.35 1347.18 161.12C1357.39 173.89 1362.49 190.07 1362.49 209.67C1362.49 230.9 1356.98 247.76 1345.97 260.26C1334.96 272.76 1319.44 279 1299.42 279V279ZM1300.43 164.15H1275.44V257.03H1299.02C1310.04 257.03 1318.83 253.41 1325.42 246.16C1332.14 238.89 1335.49 226.75 1335.49 209.68C1335.49 195.44 1332.67 184.3 1327.03 176.24C1321.39 168.18 1312.52 164.15 1300.43 164.15V164.15Z" fill="white"/>
</g>
<defs>
<clipPath id="clip0_1201_1408">
<rect width="1362.46" height="399.12" fill="white"/>
</clipPath>
</defs>
</svg>
