<svg width="400" height="400" viewBox="0 0 400 400" fill="none" xmlns="http://www.w3.org/2000/svg">
<g clip-path="url(#clip0_1201_1241)">
<path d="M199.53 399.12C309.73 399.12 399.06 309.77 399.06 199.56C399.06 89.35 309.72 0 199.53 0C89.34 0 0 89.35 0 199.56C0 309.77 89.33 399.12 199.53 399.12Z" fill="white"/>
<path d="M212.35 321.09C278.93 319.65 330.9 267.46 332.43 208.53C333.7 159.83 300.34 113.22 249.65 95.9199" stroke="#076CE3" stroke-width="13.56" stroke-miterlimit="10" stroke-linecap="round"/>
<path d="M210.829 216.36C215.639 216.36 219.549 212.46 219.549 207.64C219.549 202.82 215.649 198.92 210.829 198.92C206.009 198.92 202.109 202.82 202.109 207.64C202.109 212.46 206.009 216.36 210.829 216.36Z" fill="#076CE3" stroke="#076CE3" stroke-width="1.94" stroke-miterlimit="10" stroke-linecap="round"/>
<path d="M103.68 95.98C113.87 111.57 156.6 165.46 156.6 165.46C156.6 165.46 204.64 106.69 210.46 95.98" stroke="#076CE3" stroke-width="13.56" stroke-miterlimit="10" stroke-linecap="round"/>
<path d="M103.68 273.55V95.98" stroke="#076CE3" stroke-width="13.56" stroke-linecap="round" stroke-linejoin="round"/>
<path d="M211.75 179.62V95.98" stroke="#076CE3" stroke-width="13.56" stroke-linecap="round" stroke-linejoin="round"/>
<path d="M210.46 321.16V237.52" stroke="#076CE3" stroke-width="13.56" stroke-linecap="round" stroke-linejoin="round"/>
</g>
<defs>
<clipPath id="clip0_1201_1241">
<rect width="399.05" height="399.12" fill="white"/>
</clipPath>
</defs>
</svg>
