<svg width="534" height="534" viewBox="0 0 534 534" fill="none" xmlns="http://www.w3.org/2000/svg">
<g clip-path="url(#clip0_1201_1213)">
<g filter="url(#filter0_d_1201_1213)">
<path d="M450.79 0H89.15C44.8844 0 9 35.8844 9 80.15V441.79C9 486.056 44.8844 521.94 89.15 521.94H450.79C495.056 521.94 530.94 486.056 530.94 441.79V80.15C530.94 35.8844 495.056 0 450.79 0Z" fill="#F7F7F7"/>
<path d="M270.91 463.29C382.09 463.29 472.22 373.15 472.22 261.94C472.22 150.73 382.09 60.5996 270.91 60.5996C159.73 60.5996 69.5996 150.74 69.5996 261.95C69.5996 373.16 159.73 463.3 270.91 463.3V463.29Z" fill="#076CE3"/>
<path d="M283.85 384.57C351.02 383.1 403.46 330.46 405.01 270.99C406.29 221.85 372.64 174.83 321.49 157.38" stroke="white" stroke-width="13.68" stroke-miterlimit="10" stroke-linecap="round"/>
<path d="M282.31 278.89C287.17 278.89 291.1 274.94 291.1 270.09C291.1 265.24 287.16 261.29 282.31 261.29C277.46 261.29 273.51 265.22 273.51 270.09C273.51 274.96 277.45 278.89 282.31 278.89Z" fill="white" stroke="white" stroke-width="1.95" stroke-miterlimit="10" stroke-linecap="round"/>
<path d="M174.21 157.44C184.49 173.18 227.6 227.54 227.6 227.54C227.6 227.54 276.07 168.25 281.94 157.44" stroke="white" stroke-width="13.68" stroke-miterlimit="10" stroke-linecap="round"/>
<path d="M174.21 336.6V157.44" stroke="white" stroke-width="13.68" stroke-linecap="round" stroke-linejoin="round"/>
<path d="M283.24 241.83V157.44" stroke="white" stroke-width="13.68" stroke-linecap="round" stroke-linejoin="round"/>
<path d="M281.94 384.63V300.24" stroke="white" stroke-width="13.68" stroke-linecap="round" stroke-linejoin="round"/>
</g>
</g>
<defs>
<filter id="filter0_d_1201_1213" x="0" y="0" width="533.94" height="533.94" filterUnits="userSpaceOnUse" color-interpolation-filters="sRGB">
<feFlood flood-opacity="0" result="BackgroundImageFix"/>
<feColorMatrix in="SourceAlpha" type="matrix" values="0 0 0 0 0 0 0 0 0 0 0 0 0 0 0 0 0 0 127 0" result="hardAlpha"/>
<feOffset dx="-3" dy="6"/>
<feGaussianBlur stdDeviation="3"/>
<feColorMatrix type="matrix" values="0 0 0 0 0 0 0 0 0 0 0 0 0 0 0 0 0 0 0.1 0"/>
<feBlend mode="normal" in2="BackgroundImageFix" result="effect1_dropShadow_1201_1213"/>
<feBlend mode="normal" in="SourceGraphic" in2="effect1_dropShadow_1201_1213" result="shape"/>
</filter>
<clipPath id="clip0_1201_1213">
<rect width="534" height="534" fill="white"/>
</clipPath>
</defs>
</svg>
